<svg width="174" height="370" viewBox="0 0 174 370" fill="none" xmlns="http://www.w3.org/2000/svg">
<g clip-path="url(#clip0_40_1098)">
<path d="M183.546 372.247H169.448V357.942H183.546V372.247Z" fill="#ECD979"/>
<path d="M84.8636 372.248H70.7661V357.942H84.8636V372.248Z" fill="#ECD979"/>
<path d="M70.7659 372.247H56.6685V357.942H70.7659V372.247Z" fill="#ECD979"/>
<path d="M56.6683 372.247H42.5708V357.942H56.6683V372.247Z" fill="#ECD979"/>
<path d="M183.546 357.942H169.448V343.636H183.546V357.942Z" fill="#ECD979"/>
<path d="M70.7659 357.942H56.6685V343.636H70.7659V357.942Z" fill="#ECD979"/>
<path d="M56.6683 357.942H42.5708V343.636H56.6683V357.942Z" fill="#ECD979"/>
<path d="M42.5706 357.942H28.4731V343.636H42.5706V357.942Z" fill="#ECD979"/>
<path d="M155.35 343.636H141.253V329.331H155.35V343.636Z" fill="#ECD979"/>
<path d="M141.253 343.636H127.155V329.331H141.253V343.636Z" fill="#ECD979"/>
<path d="M127.156 343.636H113.058V329.331H127.156V343.636Z" fill="#ECD979"/>
<path d="M56.6683 343.636H42.5708V329.331H56.6683V343.636Z" fill="#ECD979"/>
<path d="M42.5706 343.636H28.4731V329.331H42.5706V343.636Z" fill="#ECD979"/>
<path d="M28.4734 343.636H14.376V329.331H28.4734V343.636Z" fill="#ECD979"/>
<path d="M169.448 329.331H155.351V315.026H169.448V329.331Z" fill="#ECD979"/>
<path d="M155.35 329.331H141.253V315.026H155.35V329.331Z" fill="#ECD979"/>
<path d="M141.253 329.331H127.155V315.026H141.253V329.331Z" fill="#ECD979"/>
<path d="M42.5706 329.331H28.4731V315.026H42.5706V329.331Z" fill="#ECD979"/>
<path d="M28.4734 329.331H14.376V315.026H28.4734V329.331Z" fill="#ECD979"/>
<path d="M14.3758 329.331H0.27832V315.026H14.3758V329.331Z" fill="#ECD979"/>
<path d="M183.546 315.025H169.448V300.72H183.546V315.025Z" fill="#ECD979"/>
<path d="M169.448 315.025H155.351V300.72H169.448V315.025Z" fill="#ECD979"/>
<path d="M155.35 315.025H141.253V300.72H155.35V315.025Z" fill="#ECD979"/>
<path d="M28.4734 315.025H14.376V300.72H28.4734V315.025Z" fill="#ECD979"/>
<path d="M14.3758 315.025H0.27832V300.72H14.3758V315.025Z" fill="#ECD979"/>
<path d="M84.8636 300.72H70.7661V286.415H84.8636V300.72Z" fill="#ECD979"/>
<path d="M14.3758 300.72H0.27832V286.415H14.3758V300.72Z" fill="#ECD979"/>
<path d="M98.9607 286.415H84.8633V272.109H98.9607V286.415Z" fill="#ECD979"/>
<path d="M84.8636 286.415H70.7661V272.109H84.8636V286.415Z" fill="#ECD979"/>
<path d="M183.546 272.109H169.448V257.803H183.546V272.109Z" fill="#ECD979"/>
<path d="M113.058 272.109H98.9609V257.803H113.058V272.109Z" fill="#ECD979"/>
<path d="M98.9607 272.109H84.8633V257.803H98.9607V272.109Z" fill="#ECD979"/>
<path d="M84.8636 272.109H70.7661V257.803H84.8636V272.109Z" fill="#ECD979"/>
<path d="M183.546 257.804H169.448V243.498H183.546V257.804Z" fill="#ECD979"/>
<path d="M169.448 257.804H155.351V243.498H169.448V257.804Z" fill="#ECD979"/>
<path d="M113.058 257.804H98.9609V243.498H113.058V257.804Z" fill="#ECD979"/>
<path d="M98.9607 257.804H84.8633V243.498H98.9607V257.804Z" fill="#ECD979"/>
<path d="M169.448 243.498H155.351V229.193H169.448V243.498Z" fill="#ECD979"/>
<path d="M155.35 243.498H141.253V229.193H155.35V243.498Z" fill="#ECD979"/>
<path d="M113.058 243.498H98.9609V229.193H113.058V243.498Z" fill="#ECD979"/>
<path d="M70.7659 243.498H56.6685V229.193H70.7659V243.498Z" fill="#ECD979"/>
<path d="M56.6683 243.498H42.5708V229.193H56.6683V243.498Z" fill="#ECD979"/>
<path d="M42.5706 243.498H28.4731V229.193H42.5706V243.498Z" fill="#ECD979"/>
<path d="M155.35 229.193H141.253V214.887H155.35V229.193Z" fill="#ECD979"/>
<path d="M141.253 229.193H127.155V214.887H141.253V229.193Z" fill="#ECD979"/>
<path d="M84.8636 229.193H70.7661V214.887H84.8636V229.193Z" fill="#ECD979"/>
<path d="M70.7659 229.193H56.6685V214.887H70.7659V229.193Z" fill="#ECD979"/>
<path d="M56.6683 229.193H42.5708V214.887H56.6683V229.193Z" fill="#ECD979"/>
<path d="M141.253 214.887H127.155V200.582H141.253V214.887Z" fill="#ECD979"/>
<path d="M127.156 214.887H113.058V200.582H127.156V214.887Z" fill="#ECD979"/>
<path d="M98.9607 214.887H84.8633V200.582H98.9607V214.887Z" fill="#ECD979"/>
<path d="M84.8636 214.887H70.7661V200.582H84.8636V214.887Z" fill="#ECD979"/>
<path d="M70.7659 214.887H56.6685V200.582H70.7659V214.887Z" fill="#ECD979"/>
<path d="M14.0975 200.582H0V186.276H14.0975V200.582Z" fill="#ECD979"/>
<path d="M28.4734 200.582H14.376V186.276H28.4734V200.582Z" fill="#ECD979"/>
<path d="M14.0975 214.887H0V200.582H14.0975V214.887Z" fill="#ECD979"/>
<path d="M14.0975 186.276H0V171.971H14.0975V186.276Z" fill="#ECD979"/>
<path d="M141.253 186.276H127.155V171.971H141.253V186.276Z" fill="#ECD979"/>
<path d="M127.156 186.276H113.058V171.971H127.156V186.276Z" fill="#ECD979"/>
<path d="M98.9607 186.276H84.8633V171.971H98.9607V186.276Z" fill="#ECD979"/>
<path d="M84.8636 186.276H70.7661V171.971H84.8636V186.276Z" fill="#ECD979"/>
<path d="M70.7659 186.276H56.6685V171.971H70.7659V186.276Z" fill="#ECD979"/>
<path d="M155.35 171.971H141.253V157.665H155.35V171.971Z" fill="#ECD979"/>
<path d="M141.253 171.971H127.155V157.666H141.253V171.971Z" fill="#ECD979"/>
<path d="M84.8636 171.971H70.7661V157.666H84.8636V171.971Z" fill="#ECD979"/>
<path d="M70.7659 171.971H56.6685V157.665H70.7659V171.971Z" fill="#ECD979"/>
<path d="M56.6683 171.971H42.5708V157.665H56.6683V171.971Z" fill="#ECD979"/>
<path d="M169.448 157.666H155.351V143.36H169.448V157.666Z" fill="#ECD979"/>
<path d="M155.35 157.666H141.253V143.36H155.35V157.666Z" fill="#ECD979"/>
<path d="M113.058 157.666H98.9609V143.36H113.058V157.666Z" fill="#ECD979"/>
<path d="M70.7659 157.666H56.6685V143.36H70.7659V157.666Z" fill="#ECD979"/>
<path d="M56.6683 157.666H42.5708V143.36H56.6683V157.666Z" fill="#ECD979"/>
<path d="M42.5706 157.666H28.4731V143.36H42.5706V157.666Z" fill="#ECD979"/>
<path d="M183.546 143.36H169.448V129.054H183.546V143.36Z" fill="#ECD979"/>
<path d="M169.448 143.36H155.351V129.054H169.448V143.36Z" fill="#ECD979"/>
<path d="M113.058 143.36H98.9609V129.054H113.058V143.36Z" fill="#ECD979"/>
<path d="M98.9607 143.36H84.8633V129.054H98.9607V143.36Z" fill="#ECD979"/>
<path d="M183.546 129.055H169.448V114.749H183.546V129.055Z" fill="#ECD979"/>
<path d="M113.058 129.054H98.9609V114.749H113.058V129.054Z" fill="#ECD979"/>
<path d="M98.9607 129.054H84.8633V114.749H98.9607V129.054Z" fill="#ECD979"/>
<path d="M84.8636 129.054H70.7661V114.749H84.8636V129.054Z" fill="#ECD979"/>
<path d="M98.9607 114.749H84.8633V100.444H98.9607V114.749Z" fill="#ECD979"/>
<path d="M84.8636 114.749H70.7661V100.444H84.8636V114.749Z" fill="#ECD979"/>
<path d="M84.8636 100.444H70.7661V86.1384H84.8636V100.444Z" fill="#ECD979"/>
<path d="M14.3758 86.1382H0.27832V71.8327H14.3758V86.1382Z" fill="#ECD979"/>
<path d="M183.546 71.8325H169.448V57.5271H183.546V71.8325Z" fill="#ECD979"/>
<path d="M169.448 71.8325H155.351V57.5271H169.448V71.8325Z" fill="#ECD979"/>
<path d="M155.35 71.8325H141.253V57.5271H155.35V71.8325Z" fill="#ECD979"/>
<path d="M28.4734 71.8325H14.376V57.5271H28.4734V71.8325Z" fill="#ECD979"/>
<path d="M14.3758 71.8325H0.27832V57.5271H14.3758V71.8325Z" fill="#ECD979"/>
<path d="M169.448 57.5273H155.351V43.2219H169.448V57.5273Z" fill="#ECD979"/>
<path d="M155.35 57.5273H141.253V43.2219H155.35V57.5273Z" fill="#ECD979"/>
<path d="M141.253 57.5269H127.155V43.2214H141.253V57.5269Z" fill="#ECD979"/>
<path d="M42.5706 57.5273H28.4731V43.2219H42.5706V57.5273Z" fill="#ECD979"/>
<path d="M28.4734 57.5273H14.376V43.2219H28.4734V57.5273Z" fill="#ECD979"/>
<path d="M14.3758 57.5269H0.27832V43.2214H14.3758V57.5269Z" fill="#ECD979"/>
<path d="M155.35 43.2217H141.253V28.9162H155.35V43.2217Z" fill="#ECD979"/>
<path d="M141.253 43.2217H127.155V28.9162H141.253V43.2217Z" fill="#ECD979"/>
<path d="M127.156 43.2217H113.058V28.9162H127.156V43.2217Z" fill="#ECD979"/>
<path d="M56.6683 43.2217H42.5708V28.9162H56.6683V43.2217Z" fill="#ECD979"/>
<path d="M42.5706 43.2217H28.4731V28.9162H42.5706V43.2217Z" fill="#ECD979"/>
<path d="M28.4734 43.2217H14.376V28.9162H28.4734V43.2217Z" fill="#ECD979"/>
<path d="M183.546 28.916H169.448V14.6106H183.546V28.916Z" fill="#ECD979"/>
<path d="M70.7659 28.916H56.6685V14.6106H70.7659V28.916Z" fill="#ECD979"/>
<path d="M56.6683 28.916H42.5708V14.6106H56.6683V28.916Z" fill="#ECD979"/>
<path d="M42.5706 28.916H28.4731V14.6106H42.5706V28.916Z" fill="#ECD979"/>
<path d="M183.546 14.6108H169.448V0.305381H183.546V14.6108Z" fill="#ECD979"/>
<path d="M84.8636 14.6108H70.7661V0.305381H84.8636V14.6108Z" fill="#ECD979"/>
<path d="M70.7659 14.6108H56.6685V0.305381H70.7659V14.6108Z" fill="#ECD979"/>
<path d="M56.6683 14.6108H42.5708V0.305381H56.6683V14.6108Z" fill="#ECD979"/>
<path d="M183.546 0.305176H169.448V-14.0003H183.546V0.305176Z" fill="#ECD979"/>
<path d="M98.9607 0.305176H84.8633V-14.0003H98.9607V0.305176Z" fill="#ECD979"/>
<path d="M84.8636 0.305176H70.7661V-14.0003H84.8636V0.305176Z" fill="#ECD979"/>
<path d="M70.7659 0.305176H56.6685V-14.0003H70.7659V0.305176Z" fill="#ECD979"/>
<path d="M14.3758 0.305176H0.27832V-14.0003H14.3758V0.305176Z" fill="#ECD979"/>
</g>
<defs>
<clipPath id="clip0_40_1098">
<rect width="452" height="401" fill="white" transform="translate(0 -14)"/>
</clipPath>
</defs>
</svg>
