<svg width="323" height="484" viewBox="0 0 323 484" fill="none" xmlns="http://www.w3.org/2000/svg">
<g clip-path="url(#clip0_15092_1333)">
<path d="M322.27 483.46H305.271V466.194H322.27V483.46Z" fill="#FCF9F9" fill-opacity="0.1"/>
<path d="M305.271 483.46H288.273V466.194H305.271V483.46Z" fill="#FCF9F9" fill-opacity="0.1"/>
<path d="M237.279 483.46H220.281V466.194H237.279V483.46Z" fill="#FCF9F9" fill-opacity="0.1"/>
<path d="M220.281 483.46H203.283V466.194H220.281V483.46Z" fill="#FCF9F9" fill-opacity="0.1"/>
<path d="M203.282 483.46H186.284V466.194H203.282V483.46Z" fill="#FCF9F9" fill-opacity="0.1"/>
<path d="M101.295 483.46H84.2969V466.194H101.295V483.46Z" fill="#FCF9F9" fill-opacity="0.1"/>
<path d="M322.27 466.194H305.271V448.927H322.27V466.194Z" fill="#FCF9F9" fill-opacity="0.1"/>
<path d="M254.276 466.194H237.278V448.927H254.276V466.194Z" fill="#FCF9F9" fill-opacity="0.1"/>
<path d="M237.279 466.194H220.281V448.927H237.279V466.194Z" fill="#FCF9F9" fill-opacity="0.1"/>
<path d="M220.281 466.194H203.283V448.927H220.281V466.194Z" fill="#FCF9F9" fill-opacity="0.1"/>
<path d="M101.295 466.194H84.2969V448.927H101.295V466.194Z" fill="#FCF9F9" fill-opacity="0.1"/>
<path d="M84.2969 466.194H67.2988V448.927H84.2969V466.194Z" fill="#FCF9F9" fill-opacity="0.1"/>
<path d="M16.3086 466.194H-0.689453V448.927H16.3086V466.194Z" fill="#FCF9F9" fill-opacity="0.1"/>
<path d="M271.275 448.928H254.277V431.661H271.275V448.928Z" fill="#FCF9F9" fill-opacity="0.1"/>
<path d="M254.276 448.928H237.278V431.661H254.276V448.928Z" fill="#FCF9F9" fill-opacity="0.1"/>
<path d="M237.279 448.928H220.281V431.661H237.279V448.928Z" fill="#FCF9F9" fill-opacity="0.1"/>
<path d="M101.295 448.928H84.2969V431.661H101.295V448.928Z" fill="#FCF9F9" fill-opacity="0.1"/>
<path d="M84.2969 448.928H67.2988V431.661H84.2969V448.928Z" fill="#FCF9F9" fill-opacity="0.1"/>
<path d="M67.2979 448.928H50.2998V431.661H67.2979V448.928Z" fill="#FCF9F9" fill-opacity="0.1"/>
<path d="M33.3067 448.928H16.3086V431.661H33.3067V448.928Z" fill="#FCF9F9" fill-opacity="0.1"/>
<path d="M16.3086 448.928H-0.689453V431.661H16.3086V448.928Z" fill="#FCF9F9" fill-opacity="0.1"/>
<path d="M288.272 431.661H271.274V414.395H288.272V431.661Z" fill="#FCF9F9" fill-opacity="0.1"/>
<path d="M271.275 431.661H254.277V414.395H271.275V431.661Z" fill="#FCF9F9" fill-opacity="0.1"/>
<path d="M254.276 431.661H237.278V414.395H254.276V431.661Z" fill="#FCF9F9" fill-opacity="0.1"/>
<path d="M169.287 431.661H152.289V414.395H169.287V431.661Z" fill="#FCF9F9" fill-opacity="0.1"/>
<path d="M152.289 431.661H135.291V414.395H152.289V431.661Z" fill="#FCF9F9" fill-opacity="0.1"/>
<path d="M135.291 431.661H118.293V414.395H135.291V431.661Z" fill="#FCF9F9" fill-opacity="0.1"/>
<path d="M84.2969 431.661H67.2988V414.395H84.2969V431.661Z" fill="#FCF9F9" fill-opacity="0.1"/>
<path d="M67.2979 431.661H50.2998V414.395H67.2979V431.661Z" fill="#FCF9F9" fill-opacity="0.1"/>
<path d="M33.3067 431.661H16.3086V414.395H33.3067V431.661Z" fill="#FCF9F9" fill-opacity="0.1"/>
<path d="M16.3086 431.661H-0.689453V414.395H16.3086V431.661Z" fill="#FCF9F9" fill-opacity="0.1"/>
<path d="M305.271 414.395H288.273V397.128H305.271V414.395Z" fill="#FCF9F9" fill-opacity="0.1"/>
<path d="M288.272 414.395H271.274V397.128H288.272V414.395Z" fill="#FCF9F9" fill-opacity="0.1"/>
<path d="M271.275 414.395H254.277V397.128H271.275V414.395Z" fill="#FCF9F9" fill-opacity="0.1"/>
<path d="M152.289 414.395H135.291V397.128H152.289V414.395Z" fill="#FCF9F9" fill-opacity="0.1"/>
<path d="M135.291 414.395H118.293V397.128H135.291V414.395Z" fill="#FCF9F9" fill-opacity="0.1"/>
<path d="M118.293 414.395H101.295V397.128H118.293V414.395Z" fill="#FCF9F9" fill-opacity="0.1"/>
<path d="M67.2979 414.395H50.2998V397.128H67.2979V414.395Z" fill="#FCF9F9" fill-opacity="0.1"/>
<path d="M33.3067 414.395H16.3086V397.128H33.3067V414.395Z" fill="#FCF9F9" fill-opacity="0.1"/>
<path d="M305.271 397.128H288.273V379.861H305.271V397.128Z" fill="#FCF9F9" fill-opacity="0.1"/>
<path d="M288.272 397.128H271.274V379.861H288.272V397.128Z" fill="#FCF9F9" fill-opacity="0.1"/>
<path d="M135.291 397.128H118.293V379.861H135.291V397.128Z" fill="#FCF9F9" fill-opacity="0.1"/>
<path d="M118.293 397.128H101.295V379.861H118.293V397.128Z" fill="#FCF9F9" fill-opacity="0.1"/>
<path d="M101.295 397.128H84.2969V379.861H101.295V397.128Z" fill="#FCF9F9" fill-opacity="0.1"/>
<path d="M305.271 379.862H288.273V362.595H305.271V379.862Z" fill="#FCF9F9" fill-opacity="0.1"/>
<path d="M220.281 379.862H203.283V362.595H220.281V379.862Z" fill="#FCF9F9" fill-opacity="0.1"/>
<path d="M67.2979 379.862H50.2998V362.595H67.2979V379.862Z" fill="#FCF9F9" fill-opacity="0.1"/>
<path d="M33.3067 379.862H16.3086V362.595H33.3067V379.862Z" fill="#FCF9F9" fill-opacity="0.1"/>
<path d="M220.281 362.595H203.283V345.329H220.281V362.595Z" fill="#FCF9F9" fill-opacity="0.1"/>
<path d="M203.282 362.595H186.284V345.329H203.282V362.595Z" fill="#FCF9F9" fill-opacity="0.1"/>
<path d="M84.2969 362.595H67.2988V345.329H84.2969V362.595Z" fill="#FCF9F9" fill-opacity="0.1"/>
<path d="M67.2979 362.595H50.2998V345.329H67.2979V362.595Z" fill="#FCF9F9" fill-opacity="0.1"/>
<path d="M33.3067 362.595H16.3086V345.329H33.3067V362.595Z" fill="#FCF9F9" fill-opacity="0.1"/>
<path d="M16.3086 362.595H-0.689453V345.329H16.3086V362.595Z" fill="#FCF9F9" fill-opacity="0.1"/>
<path d="M220.281 345.329H203.283V328.063H220.281V345.329Z" fill="#FCF9F9" fill-opacity="0.1"/>
<path d="M203.283 345.329H186.285V328.063H203.283V345.329Z" fill="#FCF9F9" fill-opacity="0.1"/>
<path d="M186.285 345.329H169.287V328.063H186.285V345.329Z" fill="#FCF9F9" fill-opacity="0.1"/>
<path d="M101.295 345.329H84.2969V328.063H101.295V345.329Z" fill="#FCF9F9" fill-opacity="0.1"/>
<path d="M84.2969 345.329H67.2988V328.063H84.2969V345.329Z" fill="#FCF9F9" fill-opacity="0.1"/>
<path d="M16.3086 345.329H-0.689453V328.063H16.3086V345.329Z" fill="#FCF9F9" fill-opacity="0.1"/>
<path d="M203.282 328.062H186.284V310.796H203.282V328.062Z" fill="#FCF9F9" fill-opacity="0.1"/>
<path d="M186.284 328.062H169.286V310.796H186.284V328.062Z" fill="#FCF9F9" fill-opacity="0.1"/>
<path d="M118.293 328.062H101.295V310.796H118.293V328.062Z" fill="#FCF9F9" fill-opacity="0.1"/>
<path d="M101.295 328.062H84.2969V310.796H101.295V328.062Z" fill="#FCF9F9" fill-opacity="0.1"/>
<path d="M271.275 310.796H254.277V293.529H271.275V310.796Z" fill="#FCF9F9" fill-opacity="0.1"/>
<path d="M254.276 310.796H237.278V293.529H254.276V310.796Z" fill="#FCF9F9" fill-opacity="0.1"/>
<path d="M237.279 310.796H220.281V293.529H237.279V310.796Z" fill="#FCF9F9" fill-opacity="0.1"/>
<path d="M186.284 310.796H169.286V293.529H186.284V310.796Z" fill="#FCF9F9" fill-opacity="0.1"/>
<path d="M135.291 310.796H118.293V293.529H135.291V310.796Z" fill="#FCF9F9" fill-opacity="0.1"/>
<path d="M118.293 310.796H101.295V293.529H118.293V310.796Z" fill="#FCF9F9" fill-opacity="0.1"/>
<path d="M322.27 293.529H305.271V276.263H322.27V293.529Z" fill="#FCF9F9" fill-opacity="0.1"/>
<path d="M254.277 293.529H237.279V276.263H254.277V293.529Z" fill="#FCF9F9" fill-opacity="0.1"/>
<path d="M237.279 293.529H220.281V276.263H237.279V293.529Z" fill="#FCF9F9" fill-opacity="0.1"/>
<path d="M220.281 293.529H203.283V276.263H220.281V293.529Z" fill="#FCF9F9" fill-opacity="0.1"/>
<path d="M152.289 293.529H135.291V276.263H152.289V293.529Z" fill="#FCF9F9" fill-opacity="0.1"/>
<path d="M135.291 293.529H118.293V276.263H135.291V293.529Z" fill="#FCF9F9" fill-opacity="0.1"/>
<path d="M322.27 276.263H305.271V258.997H322.27V276.263Z" fill="#FCF9F9" fill-opacity="0.1"/>
<path d="M305.271 276.263H288.273V258.997H305.271V276.263Z" fill="#FCF9F9" fill-opacity="0.1"/>
<path d="M237.279 276.263H220.281V258.997H237.279V276.263Z" fill="#FCF9F9" fill-opacity="0.1"/>
<path d="M220.281 276.263H203.283V258.997H220.281V276.263Z" fill="#FCF9F9" fill-opacity="0.1"/>
<path d="M203.282 276.263H186.284V258.997H203.282V276.263Z" fill="#FCF9F9" fill-opacity="0.1"/>
<path d="M169.287 276.263H152.289V258.997H169.287V276.263Z" fill="#FCF9F9" fill-opacity="0.1"/>
<path d="M152.289 276.263H135.291V258.997H152.289V276.263Z" fill="#FCF9F9" fill-opacity="0.1"/>
<path d="M50.3047 276.263H33.3066V258.997H50.3047V276.263Z" fill="#FCF9F9" fill-opacity="0.1"/>
<path d="M322.27 258.997H305.271V241.73H322.27V258.997Z" fill="#FCF9F9" fill-opacity="0.1"/>
<path d="M305.271 258.997H288.273V241.73H305.271V258.997Z" fill="#FCF9F9" fill-opacity="0.1"/>
<path d="M288.272 258.997H271.274V241.73H288.272V258.997Z" fill="#FCF9F9" fill-opacity="0.1"/>
<path d="M67.2979 258.997H50.2998V241.73H67.2979V258.997Z" fill="#FCF9F9" fill-opacity="0.1"/>
<path d="M50.3047 258.997H33.3066V241.73H50.3047V258.997Z" fill="#FCF9F9" fill-opacity="0.1"/>
<path d="M33.3067 258.997H16.3086V241.73H33.3067V258.997Z" fill="#FCF9F9" fill-opacity="0.1"/>
<path d="M322.27 241.73H305.271V224.464H322.27V241.73Z" fill="#FCF9F9" fill-opacity="0.1"/>
<path d="M305.271 241.73H288.273V224.464H305.271V241.73Z" fill="#FCF9F9" fill-opacity="0.1"/>
<path d="M237.279 241.73H220.281V224.464H237.279V241.73Z" fill="#FCF9F9" fill-opacity="0.1"/>
<path d="M220.281 241.73H203.283V224.464H220.281V241.73Z" fill="#FCF9F9" fill-opacity="0.1"/>
<path d="M203.282 241.73H186.284V224.464H203.282V241.73Z" fill="#FCF9F9" fill-opacity="0.1"/>
<path d="M169.287 241.73H152.289V224.464H169.287V241.73Z" fill="#FCF9F9" fill-opacity="0.1"/>
<path d="M152.289 241.73H135.291V224.464H152.289V241.73Z" fill="#FCF9F9" fill-opacity="0.1"/>
<path d="M50.3047 241.73H33.3066V224.464H50.3047V241.73Z" fill="#FCF9F9" fill-opacity="0.1"/>
<path d="M322.27 224.464H305.271V207.197H322.27V224.464Z" fill="#FCF9F9" fill-opacity="0.1"/>
<path d="M254.276 224.464H237.278V207.197H254.276V224.464Z" fill="#FCF9F9" fill-opacity="0.1"/>
<path d="M237.279 224.464H220.281V207.197H237.279V224.464Z" fill="#FCF9F9" fill-opacity="0.1"/>
<path d="M220.281 224.464H203.283V207.197H220.281V224.464Z" fill="#FCF9F9" fill-opacity="0.1"/>
<path d="M152.289 224.464H135.291V207.197H152.289V224.464Z" fill="#FCF9F9" fill-opacity="0.1"/>
<path d="M135.291 224.464H118.293V207.197H135.291V224.464Z" fill="#FCF9F9" fill-opacity="0.1"/>
<path d="M271.275 207.197H254.277V189.931H271.275V207.197Z" fill="#FCF9F9" fill-opacity="0.1"/>
<path d="M254.276 207.197H237.278V189.931H254.276V207.197Z" fill="#FCF9F9" fill-opacity="0.1"/>
<path d="M237.279 207.197H220.281V189.931H237.279V207.197Z" fill="#FCF9F9" fill-opacity="0.1"/>
<path d="M186.284 207.197H169.286V189.931H186.284V207.197Z" fill="#FCF9F9" fill-opacity="0.1"/>
<path d="M135.291 207.197H118.293V189.931H135.291V207.197Z" fill="#FCF9F9" fill-opacity="0.1"/>
<path d="M118.293 207.197H101.295V189.931H118.293V207.197Z" fill="#FCF9F9" fill-opacity="0.1"/>
<path d="M203.282 189.931H186.284V172.664H203.282V189.931Z" fill="#FCF9F9" fill-opacity="0.1"/>
<path d="M186.284 189.931H169.286V172.664H186.284V189.931Z" fill="#FCF9F9" fill-opacity="0.1"/>
<path d="M118.293 189.931H101.295V172.664H118.293V189.931Z" fill="#FCF9F9" fill-opacity="0.1"/>
<path d="M101.295 189.931H84.2969V172.664H101.295V189.931Z" fill="#FCF9F9" fill-opacity="0.1"/>
<path d="M220.281 172.665H203.283V155.398H220.281V172.665Z" fill="#FCF9F9" fill-opacity="0.1"/>
<path d="M203.282 172.665H186.284V155.398H203.282V172.665Z" fill="#FCF9F9" fill-opacity="0.1"/>
<path d="M186.284 172.665H169.286V155.398H186.284V172.665Z" fill="#FCF9F9" fill-opacity="0.1"/>
<path d="M101.295 172.665H84.2969V155.398H101.295V172.665Z" fill="#FCF9F9" fill-opacity="0.1"/>
<path d="M84.2969 172.665H67.2988V155.398H84.2969V172.665Z" fill="#FCF9F9" fill-opacity="0.1"/>
<path d="M16.3086 172.665H-0.689453V155.398H16.3086V172.665Z" fill="#FCF9F9" fill-opacity="0.1"/>
<path d="M220.281 155.398H203.283V138.132H220.281V155.398Z" fill="#FCF9F9" fill-opacity="0.1"/>
<path d="M203.282 155.398H186.284V138.132H203.282V155.398Z" fill="#FCF9F9" fill-opacity="0.1"/>
<path d="M84.2969 155.398H67.2988V138.132H84.2969V155.398Z" fill="#FCF9F9" fill-opacity="0.1"/>
<path d="M67.2979 155.398H50.2998V138.132H67.2979V155.398Z" fill="#FCF9F9" fill-opacity="0.1"/>
<path d="M33.3067 155.398H16.3086V138.132H33.3067V155.398Z" fill="#FCF9F9" fill-opacity="0.1"/>
<path d="M16.3086 155.398H-0.689453V138.132H16.3086V155.398Z" fill="#FCF9F9" fill-opacity="0.1"/>
<path d="M220.281 138.132H203.283V120.865H220.281V138.132Z" fill="#FCF9F9" fill-opacity="0.1"/>
<path d="M67.2988 138.132H50.3008V120.865H67.2988V138.132Z" fill="#FCF9F9" fill-opacity="0.1"/>
<path d="M33.3067 138.132H16.3086V120.865H33.3067V138.132Z" fill="#FCF9F9" fill-opacity="0.1"/>
<path d="M305.271 120.865H288.273V103.599H305.271V120.865Z" fill="#FCF9F9" fill-opacity="0.1"/>
<path d="M305.271 103.599H288.273V86.3322H305.271V103.599Z" fill="#FCF9F9" fill-opacity="0.1"/>
<path d="M288.272 103.599H271.274V86.3322H288.272V103.599Z" fill="#FCF9F9" fill-opacity="0.1"/>
<path d="M135.291 103.599H118.293V86.3322H135.291V103.599Z" fill="#FCF9F9" fill-opacity="0.1"/>
<path d="M118.293 103.599H101.295V86.3322H118.293V103.599Z" fill="#FCF9F9" fill-opacity="0.1"/>
<path d="M101.295 103.599H84.2969V86.3322H101.295V103.599Z" fill="#FCF9F9" fill-opacity="0.1"/>
<path d="M305.271 86.332H288.273V69.0656H305.271V86.332Z" fill="#FCF9F9" fill-opacity="0.1"/>
<path d="M288.272 86.332H271.274V69.0656H288.272V86.332Z" fill="#FCF9F9" fill-opacity="0.1"/>
<path d="M271.275 86.332H254.277V69.0656H271.275V86.332Z" fill="#FCF9F9" fill-opacity="0.1"/>
<path d="M152.289 86.332H135.291V69.0656H152.289V86.332Z" fill="#FCF9F9" fill-opacity="0.1"/>
<path d="M135.291 86.332H118.293V69.0656H135.291V86.332Z" fill="#FCF9F9" fill-opacity="0.1"/>
<path d="M118.293 86.332H101.295V69.0656H118.293V86.332Z" fill="#FCF9F9" fill-opacity="0.1"/>
<path d="M67.2979 86.332H50.2998V69.0656H67.2979V86.332Z" fill="#FCF9F9" fill-opacity="0.1"/>
<path d="M33.3067 86.332H16.3086V69.0656H33.3067V86.332Z" fill="#FCF9F9" fill-opacity="0.1"/>
<path d="M288.272 69.0654H271.274V51.799H288.272V69.0654Z" fill="#FCF9F9" fill-opacity="0.1"/>
<path d="M271.275 69.0654H254.277V51.799H271.275V69.0654Z" fill="#FCF9F9" fill-opacity="0.1"/>
<path d="M254.276 69.0654H237.278V51.799H254.276V69.0654Z" fill="#FCF9F9" fill-opacity="0.1"/>
<path d="M169.287 69.0654H152.289V51.799H169.287V69.0654Z" fill="#FCF9F9" fill-opacity="0.1"/>
<path d="M152.289 69.0654H135.291V51.799H152.289V69.0654Z" fill="#FCF9F9" fill-opacity="0.1"/>
<path d="M135.291 69.0654H118.293V51.799H135.291V69.0654Z" fill="#FCF9F9" fill-opacity="0.1"/>
<path d="M84.2969 69.0654H67.2988V51.799H84.2969V69.0654Z" fill="#FCF9F9" fill-opacity="0.1"/>
<path d="M67.2979 69.0654H50.2998V51.799H67.2979V69.0654Z" fill="#FCF9F9" fill-opacity="0.1"/>
<path d="M33.3067 69.0659H16.3086V51.7995H33.3067V69.0659Z" fill="#FCF9F9" fill-opacity="0.1"/>
<path d="M16.3086 69.0659H-0.689453V51.7995H16.3086V69.0659Z" fill="#FCF9F9" fill-opacity="0.1"/>
<path d="M271.275 51.7993H254.277V34.5329H271.275V51.7993Z" fill="#FCF9F9" fill-opacity="0.1"/>
<path d="M254.276 51.7993H237.278V34.5329H254.276V51.7993Z" fill="#FCF9F9" fill-opacity="0.1"/>
<path d="M237.279 51.7993H220.281V34.5329H237.279V51.7993Z" fill="#FCF9F9" fill-opacity="0.1"/>
<path d="M101.295 51.7993H84.2969V34.5329H101.295V51.7993Z" fill="#FCF9F9" fill-opacity="0.1"/>
<path d="M84.2969 51.7993H67.2988V34.5329H84.2969V51.7993Z" fill="#FCF9F9" fill-opacity="0.1"/>
<path d="M67.2979 51.7993H50.2998V34.5329H67.2979V51.7993Z" fill="#FCF9F9" fill-opacity="0.1"/>
<path d="M33.3067 51.7993H16.3086V34.5329H33.3067V51.7993Z" fill="#FCF9F9" fill-opacity="0.1"/>
<path d="M16.3086 51.7993H-0.689453V34.5329H16.3086V51.7993Z" fill="#FCF9F9" fill-opacity="0.1"/>
<path d="M322.27 34.5327H305.271V17.2663H322.27V34.5327Z" fill="#FCF9F9" fill-opacity="0.1"/>
<path d="M254.276 34.5327H237.278V17.2663H254.276V34.5327Z" fill="#FCF9F9" fill-opacity="0.1"/>
<path d="M237.279 34.5327H220.281V17.2663H237.279V34.5327Z" fill="#FCF9F9" fill-opacity="0.1"/>
<path d="M220.281 34.5327H203.283V17.2663H220.281V34.5327Z" fill="#FCF9F9" fill-opacity="0.1"/>
<path d="M101.295 34.5327H84.2969V17.2663H101.295V34.5327Z" fill="#FCF9F9" fill-opacity="0.1"/>
<path d="M84.2969 34.5327H67.2988V17.2663H84.2969V34.5327Z" fill="#FCF9F9" fill-opacity="0.1"/>
<path d="M16.3086 34.5327H-0.689453V17.2663H16.3086V34.5327Z" fill="#FCF9F9" fill-opacity="0.1"/>
<path d="M322.27 17.2666H305.271V0.000160217H322.27V17.2666Z" fill="#FCF9F9" fill-opacity="0.1"/>
<path d="M305.271 17.2666H288.273V0.000160217H305.271V17.2666Z" fill="#FCF9F9" fill-opacity="0.1"/>
<path d="M237.279 17.2666H220.281V0.000160217H237.279V17.2666Z" fill="#FCF9F9" fill-opacity="0.1"/>
<path d="M220.281 17.2666H203.283V0.000160217H220.281V17.2666Z" fill="#FCF9F9" fill-opacity="0.1"/>
<path d="M203.283 17.2666H186.285V0.000160217H203.283V17.2666Z" fill="#FCF9F9" fill-opacity="0.1"/>
<path d="M101.295 17.2666H84.2969V0.000160217H101.295V17.2666Z" fill="#FCF9F9" fill-opacity="0.1"/>
</g>
<defs>
<clipPath id="clip0_15092_1333">
<rect width="323" height="484" fill="white"/>
</clipPath>
</defs>
</svg>
