<svg width="375" height="200" viewBox="0 0 375 200" fill="none" xmlns="http://www.w3.org/2000/svg">
<g clip-path="url(#clip0_40_3051)">
<path d="M342.907 200.276H328.81V185.971H342.907V200.276Z" fill="#ECD979"/>
<path d="M328.809 200.276H314.712V185.971H328.809V200.276Z" fill="#ECD979"/>
<path d="M314.712 200.276H300.614V185.971H314.712V200.276Z" fill="#ECD979"/>
<path d="M286.516 200.276H272.419V185.971H286.516V200.276Z" fill="#ECD979"/>
<path d="M272.419 200.276H258.321V185.971H272.419V200.276Z" fill="#ECD979"/>
<path d="M187.838 200.276H173.74V185.971H187.838V200.276Z" fill="#ECD979"/>
<path d="M103.253 200.276H89.1553V185.971H103.253V200.276Z" fill="#ECD979"/>
<path d="M89.1551 200.276H75.0576V185.971H89.1551V200.276Z" fill="#ECD979"/>
<path d="M60.9607 200.276H46.8633V185.971H60.9607V200.276Z" fill="#ECD979"/>
<path d="M46.8631 200.276H32.7656V185.971H46.8631V200.276Z" fill="#ECD979"/>
<path d="M32.7654 200.276H18.668V185.971H32.7654V200.276Z" fill="#ECD979"/>
<path d="M357.004 185.971H342.906V171.666H357.004V185.971Z" fill="#ECD979"/>
<path d="M342.907 185.971H328.81V171.666H342.907V185.971Z" fill="#ECD979"/>
<path d="M328.809 185.971H314.712V171.666H328.809V185.971Z" fill="#ECD979"/>
<path d="M272.419 185.971H258.321V171.665H272.419V185.971Z" fill="#ECD979"/>
<path d="M258.321 185.971H244.224V171.666H258.321V185.971Z" fill="#ECD979"/>
<path d="M117.35 185.971H103.253V171.665H117.35V185.971Z" fill="#ECD979"/>
<path d="M103.253 185.971H89.1553V171.666H103.253V185.971Z" fill="#ECD979"/>
<path d="M46.8631 185.971H32.7656V171.666H46.8631V185.971Z" fill="#ECD979"/>
<path d="M32.7654 185.971H18.668V171.665H32.7654V185.971Z" fill="#ECD979"/>
<path d="M18.6688 185.971H4.57129V171.665H18.6688V185.971Z" fill="#ECD979"/>
<path d="M371.101 171.666H357.004V157.36H371.101V171.666Z" fill="#ECD979"/>
<path d="M357.004 171.666H342.906V157.36H357.004V171.666Z" fill="#ECD979"/>
<path d="M342.907 171.666H328.81V157.36H342.907V171.666Z" fill="#ECD979"/>
<path d="M300.614 171.666H286.517V157.36H300.614V171.666Z" fill="#ECD979"/>
<path d="M258.321 171.666H244.224V157.36H258.321V171.666Z" fill="#ECD979"/>
<path d="M244.224 171.666H230.127V157.36H244.224V171.666Z" fill="#ECD979"/>
<path d="M131.448 171.666H117.351V157.36H131.448V171.666Z" fill="#ECD979"/>
<path d="M117.35 171.666H103.253V157.36H117.35V171.666Z" fill="#ECD979"/>
<path d="M75.0584 171.666H60.9609V157.36H75.0584V171.666Z" fill="#ECD979"/>
<path d="M32.7654 171.666H18.668V157.36H32.7654V171.666Z" fill="#ECD979"/>
<path d="M18.6688 171.666H4.57129V157.36H18.6688V171.666Z" fill="#ECD979"/>
<path d="M4.5711 171.666H-9.52637V157.36H4.5711V171.666Z" fill="#ECD979"/>
<path d="M314.712 157.36H300.614V143.054H314.712V157.36Z" fill="#ECD979"/>
<path d="M300.614 157.36H286.517V143.054H300.614V157.36Z" fill="#ECD979"/>
<path d="M244.224 157.36H230.127V143.054H244.224V157.36Z" fill="#ECD979"/>
<path d="M230.127 157.36H216.029V143.054H230.127V157.36Z" fill="#ECD979"/>
<path d="M145.546 157.36H131.448V143.054H145.546V157.36Z" fill="#ECD979"/>
<path d="M131.448 157.36H117.351V143.054H131.448V157.36Z" fill="#ECD979"/>
<path d="M75.0584 157.36H60.9609V143.054H75.0584V157.36Z" fill="#ECD979"/>
<path d="M60.9607 157.36H46.8633V143.054H60.9607V157.36Z" fill="#ECD979"/>
<path d="M328.809 143.054H314.712V128.749H328.809V143.054Z" fill="#ECD979"/>
<path d="M314.712 143.054H300.614V128.749H314.712V143.054Z" fill="#ECD979"/>
<path d="M300.614 143.055H286.517V128.749H300.614V143.055Z" fill="#ECD979"/>
<path d="M230.127 143.054H216.029V128.749H230.127V143.054Z" fill="#ECD979"/>
<path d="M216.029 143.054H201.932V128.749H216.029V143.054Z" fill="#ECD979"/>
<path d="M159.642 143.055H145.545V128.749H159.642V143.055Z" fill="#ECD979"/>
<path d="M145.546 143.055H131.448V128.749H145.546V143.055Z" fill="#ECD979"/>
<path d="M75.0584 143.054H60.9609V128.749H75.0584V143.054Z" fill="#ECD979"/>
<path d="M60.9607 143.054H46.8633V128.749H60.9607V143.054Z" fill="#ECD979"/>
<path d="M46.8631 143.054H32.7656V128.749H46.8631V143.054Z" fill="#ECD979"/>
<path d="M328.809 128.749H314.712V114.444H328.809V128.749Z" fill="#ECD979"/>
<path d="M314.712 128.749H300.614V114.444H314.712V128.749Z" fill="#ECD979"/>
<path d="M216.029 128.749H201.932V114.444H216.029V128.749Z" fill="#ECD979"/>
<path d="M201.932 128.749H187.835V114.444H201.932V128.749Z" fill="#ECD979"/>
<path d="M173.741 128.749H159.644V114.444H173.741V128.749Z" fill="#ECD979"/>
<path d="M159.643 128.749H145.546V114.444H159.643V128.749Z" fill="#ECD979"/>
<path d="M60.9607 128.749H46.8633V114.444H60.9607V128.749Z" fill="#ECD979"/>
<path d="M46.8631 128.749H32.7656V114.444H46.8631V128.749Z" fill="#ECD979"/>
<path d="M328.809 114.444H314.712V100.138H328.809V114.444Z" fill="#ECD979"/>
<path d="M201.932 114.444H187.835V100.138H201.932V114.444Z" fill="#ECD979"/>
<path d="M173.741 114.444H159.644V100.138H173.741V114.444Z" fill="#ECD979"/>
<path d="M46.8631 114.444H32.7656V100.138H46.8631V114.444Z" fill="#ECD979"/>
<path d="M385.199 85.8325H371.102V71.5271H385.199V85.8325Z" fill="#ECD979"/>
<path d="M258.321 85.8325H244.224V71.5271H258.321V85.8325Z" fill="#ECD979"/>
<path d="M244.224 85.8325H230.127V71.5271H244.224V85.8325Z" fill="#ECD979"/>
<path d="M230.127 85.8325H216.029V71.5271H230.127V85.8325Z" fill="#ECD979"/>
<path d="M145.546 85.8325H131.448V71.5271H145.546V85.8325Z" fill="#ECD979"/>
<path d="M131.448 85.8325H117.351V71.5271H131.448V85.8325Z" fill="#ECD979"/>
<path d="M117.35 85.8325H103.253V71.5271H117.35V85.8325Z" fill="#ECD979"/>
<path d="M385.199 71.5273H371.102V57.2219H385.199V71.5273Z" fill="#ECD979"/>
<path d="M371.101 71.5269H357.004V57.2214H371.101V71.5269Z" fill="#ECD979"/>
<path d="M272.419 71.5273H258.321V57.2219H272.419V71.5273Z" fill="#ECD979"/>
<path d="M258.321 71.5269H244.224V57.2214H258.321V71.5269Z" fill="#ECD979"/>
<path d="M244.224 71.5269H230.127V57.2214H244.224V71.5269Z" fill="#ECD979"/>
<path d="M201.932 71.5269H187.835V57.2214H201.932V71.5269Z" fill="#ECD979"/>
<path d="M173.741 71.5269H159.644V57.2214H173.741V71.5269Z" fill="#ECD979"/>
<path d="M131.448 71.5273H117.351V57.2219H131.448V71.5273Z" fill="#ECD979"/>
<path d="M117.35 71.5273H103.253V57.2219H117.35V71.5273Z" fill="#ECD979"/>
<path d="M103.253 71.5269H89.1553V57.2214H103.253V71.5269Z" fill="#ECD979"/>
<path d="M4.57012 71.5273H-9.52734V57.2219H4.57012V71.5273Z" fill="#ECD979"/>
<path d="M385.199 57.2217H371.102V42.9162H385.199V57.2217Z" fill="#ECD979"/>
<path d="M371.101 57.2217H357.004V42.9162H371.101V57.2217Z" fill="#ECD979"/>
<path d="M357.004 57.2217H342.906V42.9162H357.004V57.2217Z" fill="#ECD979"/>
<path d="M286.516 57.2217H272.419V42.9162H286.516V57.2217Z" fill="#ECD979"/>
<path d="M272.419 57.2217H258.321V42.9162H272.419V57.2217Z" fill="#ECD979"/>
<path d="M258.321 57.2217H244.224V42.9162H258.321V57.2217Z" fill="#ECD979"/>
<path d="M216.029 57.2217H201.932V42.9162H216.029V57.2217Z" fill="#ECD979"/>
<path d="M201.932 57.2217H187.835V42.9162H201.932V57.2217Z" fill="#ECD979"/>
<path d="M173.741 57.2217H159.644V42.9162H173.741V57.2217Z" fill="#ECD979"/>
<path d="M159.643 57.2217H145.546V42.9162H159.643V57.2217Z" fill="#ECD979"/>
<path d="M117.35 57.2217H103.253V42.9162H117.35V57.2217Z" fill="#ECD979"/>
<path d="M103.253 57.2217H89.1553V42.9162H103.253V57.2217Z" fill="#ECD979"/>
<path d="M89.1551 57.2217H75.0576V42.9162H89.1551V57.2217Z" fill="#ECD979"/>
<path d="M18.6688 57.2217H4.57129V42.9162H18.6688V57.2217Z" fill="#ECD979"/>
<path d="M4.5711 57.2217H-9.52637V42.9162H4.5711V57.2217Z" fill="#ECD979"/>
<path d="M371.101 42.9165H357.004V28.611H371.101V42.9165Z" fill="#ECD979"/>
<path d="M357.004 42.9165H342.906V28.611H357.004V42.9165Z" fill="#ECD979"/>
<path d="M342.907 42.9165H328.81V28.611H342.907V42.9165Z" fill="#ECD979"/>
<path d="M230.127 42.9165H216.029V28.611H230.127V42.9165Z" fill="#ECD979"/>
<path d="M216.029 42.9165H201.932V28.611H216.029V42.9165Z" fill="#ECD979"/>
<path d="M201.932 42.9165H187.835V28.611H201.932V42.9165Z" fill="#ECD979"/>
<path d="M173.741 42.9165H159.644V28.611H173.741V42.9165Z" fill="#ECD979"/>
<path d="M159.643 42.916H145.546V28.6106H159.643V42.916Z" fill="#ECD979"/>
<path d="M145.546 42.916H131.448V28.6106H145.546V42.916Z" fill="#ECD979"/>
<path d="M32.7654 42.916H18.668V28.6106H32.7654V42.916Z" fill="#ECD979"/>
<path d="M18.6688 42.916H4.57129V28.6106H18.6688V42.916Z" fill="#ECD979"/>
<path d="M4.5711 42.916H-9.52637V28.6106H4.5711V42.916Z" fill="#ECD979"/>
<path d="M357.004 28.6108H342.906V14.3054H357.004V28.6108Z" fill="#ECD979"/>
<path d="M342.907 28.6108H328.81V14.3054H342.907V28.6108Z" fill="#ECD979"/>
<path d="M328.809 28.6108H314.712V14.3054H328.809V28.6108Z" fill="#ECD979"/>
<path d="M230.127 28.6108H216.029V14.3054H230.127V28.6108Z" fill="#ECD979"/>
<path d="M216.029 28.6108H201.932V14.3054H216.029V28.6108Z" fill="#ECD979"/>
<path d="M159.643 28.6108H145.546V14.3054H159.643V28.6108Z" fill="#ECD979"/>
<path d="M145.546 28.6108H131.448V14.3054H145.546V28.6108Z" fill="#ECD979"/>
<path d="M46.8631 28.6108H32.7656V14.3054H46.8631V28.6108Z" fill="#ECD979"/>
<path d="M32.7654 28.6108H18.668V14.3054H32.7654V28.6108Z" fill="#ECD979"/>
<path d="M18.6688 28.6108H4.57129V14.3054H18.6688V28.6108Z" fill="#ECD979"/>
<path d="M342.907 14.3052H328.81V-0.000283241H342.907V14.3052Z" fill="#ECD979"/>
<path d="M328.809 14.3052H314.712V-0.000283241H328.809V14.3052Z" fill="#ECD979"/>
<path d="M314.712 14.3052H300.614V-0.000283241H314.712V14.3052Z" fill="#ECD979"/>
<path d="M230.127 14.3052H216.029V-0.000283241H230.127V14.3052Z" fill="#ECD979"/>
<path d="M145.546 14.3052H131.448V-0.000283241H145.546V14.3052Z" fill="#ECD979"/>
<path d="M60.9607 14.3052H46.8633V-0.000283241H60.9607V14.3052Z" fill="#ECD979"/>
<path d="M46.8631 14.3052H32.7656V-0.000283241H46.8631V14.3052Z" fill="#ECD979"/>
<path d="M32.7654 14.3052H18.668V-0.000283241H32.7654V14.3052Z" fill="#ECD979"/>
</g>
<defs>
<clipPath id="clip0_40_3051">
<rect width="452" height="401" fill="white" transform="translate(-38)"/>
</clipPath>
</defs>
</svg>
