<svg width="289" height="484" viewBox="0 0 289 484" fill="none" xmlns="http://www.w3.org/2000/svg">
<g clip-path="url(#clip0_15092_999)">
<path d="M288.27 483.46H271.271V466.194H288.27V483.46Z" fill="#FCF9F9" fill-opacity="0.1"/>
<path d="M271.271 483.46H254.273V466.194H271.271V483.46Z" fill="#FCF9F9" fill-opacity="0.1"/>
<path d="M203.279 483.46H186.281V466.194H203.279V483.46Z" fill="#FCF9F9" fill-opacity="0.1"/>
<path d="M186.281 483.46H169.283V466.194H186.281V483.46Z" fill="#FCF9F9" fill-opacity="0.1"/>
<path d="M169.282 483.46H152.284V466.194H169.282V483.46Z" fill="#FCF9F9" fill-opacity="0.1"/>
<path d="M67.2949 483.46H50.2969V466.194H67.2949V483.46Z" fill="#FCF9F9" fill-opacity="0.1"/>
<path d="M288.27 466.194H271.271V448.927H288.27V466.194Z" fill="#FCF9F9" fill-opacity="0.1"/>
<path d="M220.276 466.194H203.278V448.927H220.276V466.194Z" fill="#FCF9F9" fill-opacity="0.1"/>
<path d="M203.279 466.194H186.281V448.927H203.279V466.194Z" fill="#FCF9F9" fill-opacity="0.1"/>
<path d="M186.281 466.194H169.283V448.927H186.281V466.194Z" fill="#FCF9F9" fill-opacity="0.1"/>
<path d="M67.2949 466.194H50.2969V448.927H67.2949V466.194Z" fill="#FCF9F9" fill-opacity="0.1"/>
<path d="M50.2969 466.194H33.2988V448.927H50.2969V466.194Z" fill="#FCF9F9" fill-opacity="0.1"/>
<path d="M237.275 448.928H220.277V431.661H237.275V448.928Z" fill="#FCF9F9" fill-opacity="0.1"/>
<path d="M220.276 448.928H203.278V431.661H220.276V448.928Z" fill="#FCF9F9" fill-opacity="0.1"/>
<path d="M203.279 448.928H186.281V431.661H203.279V448.928Z" fill="#FCF9F9" fill-opacity="0.1"/>
<path d="M67.2949 448.928H50.2969V431.661H67.2949V448.928Z" fill="#FCF9F9" fill-opacity="0.1"/>
<path d="M50.2969 448.928H33.2988V431.661H50.2969V448.928Z" fill="#FCF9F9" fill-opacity="0.1"/>
<path d="M33.2979 448.928H16.2998V431.661H33.2979V448.928Z" fill="#FCF9F9" fill-opacity="0.1"/>
<path d="M254.272 431.661H237.274V414.395H254.272V431.661Z" fill="#FCF9F9" fill-opacity="0.1"/>
<path d="M237.275 431.661H220.277V414.395H237.275V431.661Z" fill="#FCF9F9" fill-opacity="0.1"/>
<path d="M220.276 431.661H203.278V414.395H220.276V431.661Z" fill="#FCF9F9" fill-opacity="0.1"/>
<path d="M135.287 431.661H118.289V414.395H135.287V431.661Z" fill="#FCF9F9" fill-opacity="0.1"/>
<path d="M118.289 431.661H101.291V414.395H118.289V431.661Z" fill="#FCF9F9" fill-opacity="0.1"/>
<path d="M101.291 431.661H84.293V414.395H101.291V431.661Z" fill="#FCF9F9" fill-opacity="0.1"/>
<path d="M50.2969 431.661H33.2988V414.395H50.2969V431.661Z" fill="#FCF9F9" fill-opacity="0.1"/>
<path d="M33.2979 431.661H16.2998V414.395H33.2979V431.661Z" fill="#FCF9F9" fill-opacity="0.1"/>
<path d="M271.271 414.395H254.273V397.128H271.271V414.395Z" fill="#FCF9F9" fill-opacity="0.1"/>
<path d="M254.272 414.395H237.274V397.128H254.272V414.395Z" fill="#FCF9F9" fill-opacity="0.1"/>
<path d="M237.275 414.395H220.277V397.128H237.275V414.395Z" fill="#FCF9F9" fill-opacity="0.1"/>
<path d="M118.289 414.395H101.291V397.128H118.289V414.395Z" fill="#FCF9F9" fill-opacity="0.1"/>
<path d="M101.291 414.395H84.293V397.128H101.291V414.395Z" fill="#FCF9F9" fill-opacity="0.1"/>
<path d="M84.293 414.395H67.2949V397.128H84.293V414.395Z" fill="#FCF9F9" fill-opacity="0.1"/>
<path d="M33.2979 414.395H16.2998V397.128H33.2979V414.395Z" fill="#FCF9F9" fill-opacity="0.1"/>
<path d="M271.271 397.128H254.273V379.861H271.271V397.128Z" fill="#FCF9F9" fill-opacity="0.1"/>
<path d="M254.272 397.128H237.274V379.861H254.272V397.128Z" fill="#FCF9F9" fill-opacity="0.1"/>
<path d="M101.291 397.128H84.293V379.861H101.291V397.128Z" fill="#FCF9F9" fill-opacity="0.1"/>
<path d="M84.293 397.128H67.2949V379.861H84.293V397.128Z" fill="#FCF9F9" fill-opacity="0.1"/>
<path d="M67.2949 397.128H50.2969V379.861H67.2949V397.128Z" fill="#FCF9F9" fill-opacity="0.1"/>
<path d="M271.271 379.862H254.273V362.595H271.271V379.862Z" fill="#FCF9F9" fill-opacity="0.1"/>
<path d="M186.281 379.862H169.283V362.595H186.281V379.862Z" fill="#FCF9F9" fill-opacity="0.1"/>
<path d="M33.2979 379.862H16.2998V362.595H33.2979V379.862Z" fill="#FCF9F9" fill-opacity="0.1"/>
<path d="M186.281 362.595H169.283V345.329H186.281V362.595Z" fill="#FCF9F9" fill-opacity="0.1"/>
<path d="M169.282 362.595H152.284V345.329H169.282V362.595Z" fill="#FCF9F9" fill-opacity="0.1"/>
<path d="M50.2969 362.595H33.2988V345.329H50.2969V362.595Z" fill="#FCF9F9" fill-opacity="0.1"/>
<path d="M33.2979 362.595H16.2998V345.329H33.2979V362.595Z" fill="#FCF9F9" fill-opacity="0.1"/>
<path d="M186.281 345.329H169.283V328.063H186.281V345.329Z" fill="#FCF9F9" fill-opacity="0.1"/>
<path d="M169.283 345.329H152.285V328.063H169.283V345.329Z" fill="#FCF9F9" fill-opacity="0.1"/>
<path d="M152.285 345.329H135.287V328.063H152.285V345.329Z" fill="#FCF9F9" fill-opacity="0.1"/>
<path d="M67.2949 345.329H50.2969V328.063H67.2949V345.329Z" fill="#FCF9F9" fill-opacity="0.1"/>
<path d="M50.2969 345.329H33.2988V328.063H50.2969V345.329Z" fill="#FCF9F9" fill-opacity="0.1"/>
<path d="M169.282 328.062H152.284V310.796H169.282V328.062Z" fill="#FCF9F9" fill-opacity="0.1"/>
<path d="M152.284 328.062H135.286V310.796H152.284V328.062Z" fill="#FCF9F9" fill-opacity="0.1"/>
<path d="M84.293 328.062H67.2949V310.796H84.293V328.062Z" fill="#FCF9F9" fill-opacity="0.1"/>
<path d="M67.2949 328.062H50.2969V310.796H67.2949V328.062Z" fill="#FCF9F9" fill-opacity="0.1"/>
<path d="M237.275 310.796H220.277V293.529H237.275V310.796Z" fill="#FCF9F9" fill-opacity="0.1"/>
<path d="M220.276 310.796H203.278V293.529H220.276V310.796Z" fill="#FCF9F9" fill-opacity="0.1"/>
<path d="M203.279 310.796H186.281V293.529H203.279V310.796Z" fill="#FCF9F9" fill-opacity="0.1"/>
<path d="M152.284 310.796H135.286V293.529H152.284V310.796Z" fill="#FCF9F9" fill-opacity="0.1"/>
<path d="M101.291 310.796H84.293V293.529H101.291V310.796Z" fill="#FCF9F9" fill-opacity="0.1"/>
<path d="M84.293 310.796H67.2949V293.529H84.293V310.796Z" fill="#FCF9F9" fill-opacity="0.1"/>
<path d="M288.27 293.529H271.271V276.263H288.27V293.529Z" fill="#FCF9F9" fill-opacity="0.1"/>
<path d="M220.277 293.529H203.279V276.263H220.277V293.529Z" fill="#FCF9F9" fill-opacity="0.1"/>
<path d="M203.279 293.529H186.281V276.263H203.279V293.529Z" fill="#FCF9F9" fill-opacity="0.1"/>
<path d="M186.281 293.529H169.283V276.263H186.281V293.529Z" fill="#FCF9F9" fill-opacity="0.1"/>
<path d="M118.289 293.529H101.291V276.263H118.289V293.529Z" fill="#FCF9F9" fill-opacity="0.1"/>
<path d="M101.291 293.529H84.293V276.263H101.291V293.529Z" fill="#FCF9F9" fill-opacity="0.1"/>
<path d="M288.27 276.263H271.271V258.997H288.27V276.263Z" fill="#FCF9F9" fill-opacity="0.1"/>
<path d="M271.271 276.263H254.273V258.997H271.271V276.263Z" fill="#FCF9F9" fill-opacity="0.1"/>
<path d="M203.279 276.263H186.281V258.997H203.279V276.263Z" fill="#FCF9F9" fill-opacity="0.1"/>
<path d="M186.281 276.263H169.283V258.997H186.281V276.263Z" fill="#FCF9F9" fill-opacity="0.1"/>
<path d="M169.282 276.263H152.284V258.997H169.282V276.263Z" fill="#FCF9F9" fill-opacity="0.1"/>
<path d="M135.287 276.263H118.289V258.997H135.287V276.263Z" fill="#FCF9F9" fill-opacity="0.1"/>
<path d="M118.289 276.263H101.291V258.997H118.289V276.263Z" fill="#FCF9F9" fill-opacity="0.1"/>
<path d="M16.3047 276.263H-0.693359V258.997H16.3047V276.263Z" fill="#FCF9F9" fill-opacity="0.1"/>
<path d="M288.27 258.997H271.271V241.73H288.27V258.997Z" fill="#FCF9F9" fill-opacity="0.1"/>
<path d="M271.271 258.997H254.273V241.73H271.271V258.997Z" fill="#FCF9F9" fill-opacity="0.1"/>
<path d="M254.272 258.997H237.274V241.73H254.272V258.997Z" fill="#FCF9F9" fill-opacity="0.1"/>
<path d="M33.2979 258.997H16.2998V241.73H33.2979V258.997Z" fill="#FCF9F9" fill-opacity="0.1"/>
<path d="M16.3047 258.997H-0.693359V241.73H16.3047V258.997Z" fill="#FCF9F9" fill-opacity="0.1"/>
<path d="M288.27 241.73H271.271V224.464H288.27V241.73Z" fill="#FCF9F9" fill-opacity="0.1"/>
<path d="M271.271 241.73H254.273V224.464H271.271V241.73Z" fill="#FCF9F9" fill-opacity="0.1"/>
<path d="M203.279 241.73H186.281V224.464H203.279V241.73Z" fill="#FCF9F9" fill-opacity="0.1"/>
<path d="M186.281 241.73H169.283V224.464H186.281V241.73Z" fill="#FCF9F9" fill-opacity="0.1"/>
<path d="M169.282 241.73H152.284V224.464H169.282V241.73Z" fill="#FCF9F9" fill-opacity="0.1"/>
<path d="M135.287 241.73H118.289V224.464H135.287V241.73Z" fill="#FCF9F9" fill-opacity="0.1"/>
<path d="M118.289 241.73H101.291V224.464H118.289V241.73Z" fill="#FCF9F9" fill-opacity="0.1"/>
<path d="M16.3047 241.73H-0.693359V224.464H16.3047V241.73Z" fill="#FCF9F9" fill-opacity="0.1"/>
<path d="M288.27 224.464H271.271V207.197H288.27V224.464Z" fill="#FCF9F9" fill-opacity="0.1"/>
<path d="M220.276 224.464H203.278V207.197H220.276V224.464Z" fill="#FCF9F9" fill-opacity="0.1"/>
<path d="M203.279 224.464H186.281V207.197H203.279V224.464Z" fill="#FCF9F9" fill-opacity="0.1"/>
<path d="M186.281 224.464H169.283V207.197H186.281V224.464Z" fill="#FCF9F9" fill-opacity="0.1"/>
<path d="M118.289 224.464H101.291V207.197H118.289V224.464Z" fill="#FCF9F9" fill-opacity="0.1"/>
<path d="M101.291 224.464H84.293V207.197H101.291V224.464Z" fill="#FCF9F9" fill-opacity="0.1"/>
<path d="M237.275 207.197H220.277V189.931H237.275V207.197Z" fill="#FCF9F9" fill-opacity="0.1"/>
<path d="M220.276 207.197H203.278V189.931H220.276V207.197Z" fill="#FCF9F9" fill-opacity="0.1"/>
<path d="M203.279 207.197H186.281V189.931H203.279V207.197Z" fill="#FCF9F9" fill-opacity="0.1"/>
<path d="M152.284 207.197H135.286V189.931H152.284V207.197Z" fill="#FCF9F9" fill-opacity="0.1"/>
<path d="M101.291 207.197H84.293V189.931H101.291V207.197Z" fill="#FCF9F9" fill-opacity="0.1"/>
<path d="M84.293 207.197H67.2949V189.931H84.293V207.197Z" fill="#FCF9F9" fill-opacity="0.1"/>
<path d="M169.282 189.931H152.284V172.665H169.282V189.931Z" fill="#FCF9F9" fill-opacity="0.1"/>
<path d="M152.284 189.931H135.286V172.665H152.284V189.931Z" fill="#FCF9F9" fill-opacity="0.1"/>
<path d="M84.293 189.931H67.2949V172.665H84.293V189.931Z" fill="#FCF9F9" fill-opacity="0.1"/>
<path d="M67.2949 189.931H50.2969V172.665H67.2949V189.931Z" fill="#FCF9F9" fill-opacity="0.1"/>
<path d="M186.281 172.665H169.283V155.398H186.281V172.665Z" fill="#FCF9F9" fill-opacity="0.1"/>
<path d="M169.282 172.665H152.284V155.398H169.282V172.665Z" fill="#FCF9F9" fill-opacity="0.1"/>
<path d="M152.284 172.665H135.286V155.398H152.284V172.665Z" fill="#FCF9F9" fill-opacity="0.1"/>
<path d="M67.2949 172.665H50.2969V155.398H67.2949V172.665Z" fill="#FCF9F9" fill-opacity="0.1"/>
<path d="M50.2969 172.665H33.2988V155.398H50.2969V172.665Z" fill="#FCF9F9" fill-opacity="0.1"/>
<path d="M186.281 155.398H169.283V138.132H186.281V155.398Z" fill="#FCF9F9" fill-opacity="0.1"/>
<path d="M169.282 155.398H152.284V138.132H169.282V155.398Z" fill="#FCF9F9" fill-opacity="0.1"/>
<path d="M50.2969 155.398H33.2988V138.132H50.2969V155.398Z" fill="#FCF9F9" fill-opacity="0.1"/>
<path d="M33.2979 155.398H16.2998V138.132H33.2979V155.398Z" fill="#FCF9F9" fill-opacity="0.1"/>
<path d="M186.281 138.132H169.283V120.865H186.281V138.132Z" fill="#FCF9F9" fill-opacity="0.1"/>
<path d="M33.2988 138.132H16.3008V120.865H33.2988V138.132Z" fill="#FCF9F9" fill-opacity="0.1"/>
<path d="M271.271 120.865H254.273V103.599H271.271V120.865Z" fill="#FCF9F9" fill-opacity="0.1"/>
<path d="M271.271 103.599H254.273V86.3322H271.271V103.599Z" fill="#FCF9F9" fill-opacity="0.1"/>
<path d="M254.272 103.599H237.274V86.3322H254.272V103.599Z" fill="#FCF9F9" fill-opacity="0.1"/>
<path d="M101.291 103.599H84.293V86.3322H101.291V103.599Z" fill="#FCF9F9" fill-opacity="0.1"/>
<path d="M84.293 103.599H67.2949V86.3322H84.293V103.599Z" fill="#FCF9F9" fill-opacity="0.1"/>
<path d="M67.2949 103.599H50.2969V86.3322H67.2949V103.599Z" fill="#FCF9F9" fill-opacity="0.1"/>
<path d="M271.271 86.332H254.273V69.0656H271.271V86.332Z" fill="#FCF9F9" fill-opacity="0.1"/>
<path d="M254.272 86.332H237.274V69.0656H254.272V86.332Z" fill="#FCF9F9" fill-opacity="0.1"/>
<path d="M237.275 86.332H220.277V69.0656H237.275V86.332Z" fill="#FCF9F9" fill-opacity="0.1"/>
<path d="M118.289 86.332H101.291V69.0656H118.289V86.332Z" fill="#FCF9F9" fill-opacity="0.1"/>
<path d="M101.291 86.332H84.293V69.0656H101.291V86.332Z" fill="#FCF9F9" fill-opacity="0.1"/>
<path d="M84.293 86.332H67.2949V69.0656H84.293V86.332Z" fill="#FCF9F9" fill-opacity="0.1"/>
<path d="M33.2979 86.332H16.2998V69.0656H33.2979V86.332Z" fill="#FCF9F9" fill-opacity="0.1"/>
<path d="M254.272 69.0659H237.274V51.7995H254.272V69.0659Z" fill="#FCF9F9" fill-opacity="0.1"/>
<path d="M237.275 69.0659H220.277V51.7995H237.275V69.0659Z" fill="#FCF9F9" fill-opacity="0.1"/>
<path d="M220.276 69.0659H203.278V51.7995H220.276V69.0659Z" fill="#FCF9F9" fill-opacity="0.1"/>
<path d="M135.287 69.0659H118.289V51.7995H135.287V69.0659Z" fill="#FCF9F9" fill-opacity="0.1"/>
<path d="M118.289 69.0659H101.291V51.7995H118.289V69.0659Z" fill="#FCF9F9" fill-opacity="0.1"/>
<path d="M101.291 69.0659H84.293V51.7995H101.291V69.0659Z" fill="#FCF9F9" fill-opacity="0.1"/>
<path d="M50.2969 69.0659H33.2988V51.7995H50.2969V69.0659Z" fill="#FCF9F9" fill-opacity="0.1"/>
<path d="M33.2979 69.0659H16.2998V51.7995H33.2979V69.0659Z" fill="#FCF9F9" fill-opacity="0.1"/>
<path d="M237.275 51.7993H220.277V34.5329H237.275V51.7993Z" fill="#FCF9F9" fill-opacity="0.1"/>
<path d="M220.276 51.7993H203.278V34.5329H220.276V51.7993Z" fill="#FCF9F9" fill-opacity="0.1"/>
<path d="M203.279 51.7993H186.281V34.5329H203.279V51.7993Z" fill="#FCF9F9" fill-opacity="0.1"/>
<path d="M67.2949 51.7993H50.2969V34.5329H67.2949V51.7993Z" fill="#FCF9F9" fill-opacity="0.1"/>
<path d="M50.2969 51.7993H33.2988V34.5329H50.2969V51.7993Z" fill="#FCF9F9" fill-opacity="0.1"/>
<path d="M33.2979 51.7993H16.2998V34.5329H33.2979V51.7993Z" fill="#FCF9F9" fill-opacity="0.1"/>
<path d="M288.27 34.5327H271.271V17.2663H288.27V34.5327Z" fill="#FCF9F9" fill-opacity="0.1"/>
<path d="M220.276 34.5327H203.278V17.2663H220.276V34.5327Z" fill="#FCF9F9" fill-opacity="0.1"/>
<path d="M203.279 34.5327H186.281V17.2663H203.279V34.5327Z" fill="#FCF9F9" fill-opacity="0.1"/>
<path d="M186.281 34.5327H169.283V17.2663H186.281V34.5327Z" fill="#FCF9F9" fill-opacity="0.1"/>
<path d="M67.2949 34.5327H50.2969V17.2663H67.2949V34.5327Z" fill="#FCF9F9" fill-opacity="0.1"/>
<path d="M50.2969 34.5327H33.2988V17.2663H50.2969V34.5327Z" fill="#FCF9F9" fill-opacity="0.1"/>
<path d="M288.27 17.2666H271.271V0.000160217H288.27V17.2666Z" fill="#FCF9F9" fill-opacity="0.1"/>
<path d="M271.271 17.2666H254.273V0.000160217H271.271V17.2666Z" fill="#FCF9F9" fill-opacity="0.1"/>
<path d="M203.279 17.2666H186.281V0.000160217H203.279V17.2666Z" fill="#FCF9F9" fill-opacity="0.1"/>
<path d="M186.281 17.2666H169.283V0.000160217H186.281V17.2666Z" fill="#FCF9F9" fill-opacity="0.1"/>
<path d="M169.283 17.2666H152.285V0.000160217H169.283V17.2666Z" fill="#FCF9F9" fill-opacity="0.1"/>
<path d="M67.2949 17.2666H50.2969V0.000160217H67.2949V17.2666Z" fill="#FCF9F9" fill-opacity="0.1"/>
</g>
<defs>
<clipPath id="clip0_15092_999">
<rect width="289" height="484" fill="white"/>
</clipPath>
</defs>
</svg>
