<svg width="169" height="300" viewBox="0 0 169 300" fill="none" xmlns="http://www.w3.org/2000/svg">
<g clip-path="url(#clip0_37_2669)">
<path d="M168.547 299.666H158.005V288.963H168.547V299.666Z" fill="#ECD979"/>
<path d="M158.005 299.666H147.463V288.963H158.005V299.666Z" fill="#ECD979"/>
<path d="M115.837 299.666H105.295V288.963H115.837V299.666Z" fill="#ECD979"/>
<path d="M105.295 299.666H94.7534V288.963H105.295V299.666Z" fill="#ECD979"/>
<path d="M94.7533 299.666H84.2114V288.963H94.7533V299.666Z" fill="#ECD979"/>
<path d="M31.5019 299.666H20.96V288.963H31.5019V299.666Z" fill="#ECD979"/>
<path d="M168.547 288.963H158.005V278.261H168.547V288.963Z" fill="#ECD979"/>
<path d="M126.379 288.963H115.837V278.261H126.379V288.963Z" fill="#ECD979"/>
<path d="M115.837 288.963H105.295V278.261H115.837V288.963Z" fill="#ECD979"/>
<path d="M105.295 288.963H94.7534V278.261H105.295V288.963Z" fill="#ECD979"/>
<path d="M31.5019 288.963H20.96V278.261H31.5019V288.963Z" fill="#ECD979"/>
<path d="M20.9599 288.963H10.418V278.261H20.9599V288.963Z" fill="#ECD979"/>
<path d="M136.921 278.261H126.379V267.558H136.921V278.261Z" fill="#ECD979"/>
<path d="M126.379 278.261H115.837V267.558H126.379V278.261Z" fill="#ECD979"/>
<path d="M115.837 278.261H105.295V267.558H115.837V278.261Z" fill="#ECD979"/>
<path d="M31.5019 278.261H20.96V267.558H31.5019V278.261Z" fill="#ECD979"/>
<path d="M20.9599 278.261H10.418V267.558H20.9599V278.261Z" fill="#ECD979"/>
<path d="M10.4179 278.261H-0.124023V267.558H10.4179V278.261Z" fill="#ECD979"/>
<path d="M147.463 267.559H136.921V256.856H147.463V267.559Z" fill="#ECD979"/>
<path d="M136.921 267.559H126.379V256.856H136.921V267.559Z" fill="#ECD979"/>
<path d="M126.379 267.559H115.837V256.856H126.379V267.559Z" fill="#ECD979"/>
<path d="M73.6694 267.559H63.1274V256.856H73.6694V267.559Z" fill="#ECD979"/>
<path d="M63.1274 267.559H52.5854V256.856H63.1274V267.559Z" fill="#ECD979"/>
<path d="M52.5859 267.559H42.0439V256.856H52.5859V267.559Z" fill="#ECD979"/>
<path d="M20.9599 267.559H10.418V256.856H20.9599V267.559Z" fill="#ECD979"/>
<path d="M10.4179 267.559H-0.124023V256.856H10.4179V267.559Z" fill="#ECD979"/>
<path d="M158.005 256.856H147.463V246.154H158.005V256.856Z" fill="#ECD979"/>
<path d="M147.463 256.856H136.921V246.154H147.463V256.856Z" fill="#ECD979"/>
<path d="M136.921 256.856H126.379V246.154H136.921V256.856Z" fill="#ECD979"/>
<path d="M63.1274 256.856H52.5854V246.154H63.1274V256.856Z" fill="#ECD979"/>
<path d="M52.5859 256.856H42.0439V246.154H52.5859V256.856Z" fill="#ECD979"/>
<path d="M42.0439 256.856H31.502V246.154H42.0439V256.856Z" fill="#ECD979"/>
<path d="M10.4179 256.856H-0.124023V246.154H10.4179V256.856Z" fill="#ECD979"/>
<path d="M158.005 246.154H147.463V235.451H158.005V246.154Z" fill="#ECD979"/>
<path d="M147.463 246.154H136.921V235.451H147.463V246.154Z" fill="#ECD979"/>
<path d="M52.5859 246.154H42.0439V235.451H52.5859V246.154Z" fill="#ECD979"/>
<path d="M42.0439 246.154H31.502V235.451H42.0439V246.154Z" fill="#ECD979"/>
<path d="M31.5019 246.154H20.96V235.451H31.5019V246.154Z" fill="#ECD979"/>
<path d="M158.005 235.451H147.463V224.749H158.005V235.451Z" fill="#ECD979"/>
<path d="M105.295 235.451H94.7534V224.749H105.295V235.451Z" fill="#ECD979"/>
<path d="M10.4179 235.451H-0.124023V224.749H10.4179V235.451Z" fill="#ECD979"/>
<path d="M105.295 224.749H94.7534V214.047H105.295V224.749Z" fill="#ECD979"/>
<path d="M94.7533 224.749H84.2114V214.047H94.7533V224.749Z" fill="#ECD979"/>
<path d="M20.9599 224.749H10.418V214.047H20.9599V224.749Z" fill="#ECD979"/>
<path d="M10.4179 224.749H-0.124023V214.047H10.4179V224.749Z" fill="#ECD979"/>
<path d="M105.295 214.047H94.7534V203.345H105.295V214.047Z" fill="#ECD979"/>
<path d="M94.7533 214.047H84.2114V203.345H94.7533V214.047Z" fill="#ECD979"/>
<path d="M84.2113 214.047H73.6694V203.345H84.2113V214.047Z" fill="#ECD979"/>
<path d="M31.5019 214.047H20.96V203.345H31.5019V214.047Z" fill="#ECD979"/>
<path d="M20.9599 214.047H10.418V203.345H20.9599V214.047Z" fill="#ECD979"/>
<path d="M94.7533 203.344H84.2114V192.642H94.7533V203.344Z" fill="#ECD979"/>
<path d="M84.2113 203.344H73.6694V192.642H84.2113V203.344Z" fill="#ECD979"/>
<path d="M42.0439 203.344H31.502V192.642H42.0439V203.344Z" fill="#ECD979"/>
<path d="M31.5019 203.344H20.96V192.642H31.5019V203.344Z" fill="#ECD979"/>
<path d="M136.921 192.642H126.379V181.94H136.921V192.642Z" fill="#ECD979"/>
<path d="M126.379 192.642H115.837V181.94H126.379V192.642Z" fill="#ECD979"/>
<path d="M115.837 192.642H105.295V181.94H115.837V192.642Z" fill="#ECD979"/>
<path d="M84.2113 192.642H73.6694V181.94H84.2113V192.642Z" fill="#ECD979"/>
<path d="M52.5859 192.642H42.0439V181.94H52.5859V192.642Z" fill="#ECD979"/>
<path d="M42.0439 192.642H31.502V181.94H42.0439V192.642Z" fill="#ECD979"/>
<path d="M168.547 181.94H158.005V171.237H168.547V181.94Z" fill="#ECD979"/>
<path d="M126.379 181.94H115.837V171.237H126.379V181.94Z" fill="#ECD979"/>
<path d="M115.837 181.94H105.295V171.237H115.837V181.94Z" fill="#ECD979"/>
<path d="M105.295 181.94H94.7534V171.237H105.295V181.94Z" fill="#ECD979"/>
<path d="M63.1274 181.94H52.5854V171.237H63.1274V181.94Z" fill="#ECD979"/>
<path d="M52.5859 181.94H42.0439V171.237H52.5859V181.94Z" fill="#ECD979"/>
<path d="M168.547 171.238H158.005V160.535H168.547V171.238Z" fill="#ECD979"/>
<path d="M158.005 171.238H147.463V160.535H158.005V171.238Z" fill="#ECD979"/>
<path d="M115.837 171.238H105.295V160.535H115.837V171.238Z" fill="#ECD979"/>
<path d="M105.295 171.238H94.7534V160.535H105.295V171.238Z" fill="#ECD979"/>
<path d="M94.7533 171.238H84.2114V160.535H94.7533V171.238Z" fill="#ECD979"/>
<path d="M73.6694 171.238H63.1274V160.535H73.6694V171.238Z" fill="#ECD979"/>
<path d="M63.1274 171.238H52.5854V160.535H63.1274V171.238Z" fill="#ECD979"/>
<path d="M168.547 160.535H158.005V149.833H168.547V160.535Z" fill="#ECD979"/>
<path d="M158.005 160.535H147.463V149.833H158.005V160.535Z" fill="#ECD979"/>
<path d="M147.463 160.535H136.921V149.833H147.463V160.535Z" fill="#ECD979"/>
<path d="M10.4179 160.535H-0.124023V149.833H10.4179V160.535Z" fill="#ECD979"/>
<path d="M168.547 149.833H158.005V139.13H168.547V149.833Z" fill="#ECD979"/>
<path d="M158.005 149.833H147.463V139.13H158.005V149.833Z" fill="#ECD979"/>
<path d="M115.837 149.833H105.295V139.13H115.837V149.833Z" fill="#ECD979"/>
<path d="M105.295 149.833H94.7534V139.13H105.295V149.833Z" fill="#ECD979"/>
<path d="M94.7533 149.833H84.2114V139.13H94.7533V149.833Z" fill="#ECD979"/>
<path d="M73.6694 149.833H63.1274V139.13H73.6694V149.833Z" fill="#ECD979"/>
<path d="M63.1274 149.833H52.5854V139.13H63.1274V149.833Z" fill="#ECD979"/>
<path d="M168.547 139.13H158.005V128.428H168.547V139.13Z" fill="#ECD979"/>
<path d="M126.379 139.13H115.837V128.428H126.379V139.13Z" fill="#ECD979"/>
<path d="M115.837 139.13H105.295V128.428H115.837V139.13Z" fill="#ECD979"/>
<path d="M105.295 139.13H94.7534V128.428H105.295V139.13Z" fill="#ECD979"/>
<path d="M63.1274 139.13H52.5854V128.428H63.1274V139.13Z" fill="#ECD979"/>
<path d="M52.5859 139.13H42.0439V128.428H52.5859V139.13Z" fill="#ECD979"/>
<path d="M136.921 128.428H126.379V117.726H136.921V128.428Z" fill="#ECD979"/>
<path d="M126.379 128.428H115.837V117.726H126.379V128.428Z" fill="#ECD979"/>
<path d="M115.837 128.428H105.295V117.726H115.837V128.428Z" fill="#ECD979"/>
<path d="M84.2113 128.428H73.6694V117.726H84.2113V128.428Z" fill="#ECD979"/>
<path d="M52.5859 128.428H42.0439V117.726H52.5859V128.428Z" fill="#ECD979"/>
<path d="M42.0439 128.428H31.502V117.726H42.0439V128.428Z" fill="#ECD979"/>
<path d="M94.7533 117.726H84.2114V107.023H94.7533V117.726Z" fill="#ECD979"/>
<path d="M84.2113 117.726H73.6694V107.023H84.2113V117.726Z" fill="#ECD979"/>
<path d="M42.0439 117.726H31.502V107.023H42.0439V117.726Z" fill="#ECD979"/>
<path d="M31.5019 117.726H20.96V107.023H31.5019V117.726Z" fill="#ECD979"/>
<path d="M105.295 107.023H94.7534V96.3211H105.295V107.023Z" fill="#ECD979"/>
<path d="M94.7533 107.023H84.2114V96.3211H94.7533V107.023Z" fill="#ECD979"/>
<path d="M84.2113 107.023H73.6694V96.3211H84.2113V107.023Z" fill="#ECD979"/>
<path d="M31.5019 107.023H20.96V96.3211H31.5019V107.023Z" fill="#ECD979"/>
<path d="M20.9599 107.023H10.418V96.3211H20.9599V107.023Z" fill="#ECD979"/>
<path d="M105.295 96.321H94.7534V85.6187H105.295V96.321Z" fill="#ECD979"/>
<path d="M94.7533 96.321H84.2114V85.6187H94.7533V96.321Z" fill="#ECD979"/>
<path d="M20.9599 96.321H10.418V85.6187H20.9599V96.321Z" fill="#ECD979"/>
<path d="M10.4179 96.321H-0.124023V85.6187H10.4179V96.321Z" fill="#ECD979"/>
<path d="M105.295 85.6187H94.7534V74.9163H105.295V85.6187Z" fill="#ECD979"/>
<path d="M10.4179 85.6187H-0.124023V74.9163H10.4179V85.6187Z" fill="#ECD979"/>
<path d="M158.005 74.9163H147.463V64.2139H158.005V74.9163Z" fill="#ECD979"/>
<path d="M158.005 64.2141H147.463V53.5118H158.005V64.2141Z" fill="#ECD979"/>
<path d="M147.463 64.2141H136.921V53.5118H147.463V64.2141Z" fill="#ECD979"/>
<path d="M52.5859 64.2141H42.0439V53.5118H52.5859V64.2141Z" fill="#ECD979"/>
<path d="M42.0439 64.2141H31.502V53.5118H42.0439V64.2141Z" fill="#ECD979"/>
<path d="M31.5019 64.2141H20.96V53.5118H31.5019V64.2141Z" fill="#ECD979"/>
<path d="M158.005 53.5117H147.463V42.8094H158.005V53.5117Z" fill="#ECD979"/>
<path d="M147.463 53.5117H136.921V42.8094H147.463V53.5117Z" fill="#ECD979"/>
<path d="M136.921 53.5117H126.379V42.8094H136.921V53.5117Z" fill="#ECD979"/>
<path d="M63.1274 53.5117H52.5854V42.8094H63.1274V53.5117Z" fill="#ECD979"/>
<path d="M52.5859 53.5117H42.0439V42.8094H52.5859V53.5117Z" fill="#ECD979"/>
<path d="M42.0439 53.5117H31.502V42.8094H42.0439V53.5117Z" fill="#ECD979"/>
<path d="M10.4179 53.5117H-0.124023V42.8094H10.4179V53.5117Z" fill="#ECD979"/>
<path d="M147.463 42.8093H136.921V32.107H147.463V42.8093Z" fill="#ECD979"/>
<path d="M136.921 42.8093H126.379V32.107H136.921V42.8093Z" fill="#ECD979"/>
<path d="M126.379 42.8093H115.837V32.107H126.379V42.8093Z" fill="#ECD979"/>
<path d="M73.6694 42.8093H63.1274V32.107H73.6694V42.8093Z" fill="#ECD979"/>
<path d="M63.1274 42.8093H52.5854V32.107H63.1274V42.8093Z" fill="#ECD979"/>
<path d="M52.5859 42.8093H42.0439V32.107H52.5859V42.8093Z" fill="#ECD979"/>
<path d="M20.9599 42.8093H10.418V32.107H20.9599V42.8093Z" fill="#ECD979"/>
<path d="M10.4179 42.8093H-0.124023V32.107H10.4179V42.8093Z" fill="#ECD979"/>
<path d="M136.921 32.1069H126.379V21.4046H136.921V32.1069Z" fill="#ECD979"/>
<path d="M126.379 32.1069H115.837V21.4046H126.379V32.1069Z" fill="#ECD979"/>
<path d="M115.837 32.1069H105.295V21.4046H115.837V32.1069Z" fill="#ECD979"/>
<path d="M31.5019 32.1069H20.96V21.4046H31.5019V32.1069Z" fill="#ECD979"/>
<path d="M20.9599 32.1069H10.418V21.4046H20.9599V32.1069Z" fill="#ECD979"/>
<path d="M10.4179 32.1069H-0.124023V21.4046H10.4179V32.1069Z" fill="#ECD979"/>
<path d="M168.547 21.4045H158.005V10.7022H168.547V21.4045Z" fill="#ECD979"/>
<path d="M126.379 21.4045H115.837V10.7022H126.379V21.4045Z" fill="#ECD979"/>
<path d="M115.837 21.4045H105.295V10.7022H115.837V21.4045Z" fill="#ECD979"/>
<path d="M105.295 21.4045H94.7534V10.7022H105.295V21.4045Z" fill="#ECD979"/>
<path d="M31.5019 21.4045H20.96V10.7022H31.5019V21.4045Z" fill="#ECD979"/>
<path d="M20.9599 21.4045H10.418V10.7022H20.9599V21.4045Z" fill="#ECD979"/>
<path d="M168.547 10.7024H158.005V5.34058e-05H168.547V10.7024Z" fill="#ECD979"/>
<path d="M158.005 10.7024H147.463V5.34058e-05H158.005V10.7024Z" fill="#ECD979"/>
<path d="M115.837 10.7024H105.295V5.34058e-05H115.837V10.7024Z" fill="#ECD979"/>
<path d="M105.295 10.7024H94.7534V5.34058e-05H105.295V10.7024Z" fill="#ECD979"/>
<path d="M94.7533 10.7024H84.2114V5.34058e-05H94.7533V10.7024Z" fill="#ECD979"/>
<path d="M31.5019 10.7024H20.96V5.34058e-05H31.5019V10.7024Z" fill="#ECD979"/>
</g>
<defs>
<clipPath id="clip0_37_2669">
<rect width="338" height="300" fill="white" transform="translate(-169)"/>
</clipPath>
</defs>
</svg>
