<svg width="496" height="363" viewBox="0 0 496 363" fill="none" xmlns="http://www.w3.org/2000/svg">
<g clip-path="url(#clip0_37_389)">
<path d="M390.069 372.23H371.512V353.394H390.069V372.23Z" fill="#ECD979"/>
<path d="M371.512 372.23H352.955V353.394H371.512V372.23Z" fill="#ECD979"/>
<path d="M352.954 372.23H334.397V353.394H352.954V372.23Z" fill="#ECD979"/>
<path d="M241.614 372.23H223.057V353.394H241.614V372.23Z" fill="#ECD979"/>
<path d="M223.057 372.23H204.499V353.394H223.057V372.23Z" fill="#ECD979"/>
<path d="M204.499 372.23H185.941V353.394H204.499V372.23Z" fill="#ECD979"/>
<path d="M37.4813 372.23H18.9238V353.394H37.4813V372.23Z" fill="#ECD979"/>
<path d="M18.9242 372.23H0.366699V353.394H18.9242V372.23Z" fill="#ECD979"/>
<path d="M482.857 353.395H464.299V334.558H482.857V353.395Z" fill="#ECD979"/>
<path d="M315.84 353.395H297.282V334.558H315.84V353.395Z" fill="#ECD979"/>
<path d="M278.729 353.395H260.171V334.558H278.729V353.395Z" fill="#ECD979"/>
<path d="M111.711 353.395H93.1538V334.558H111.711V353.395Z" fill="#ECD979"/>
<path d="M18.9242 353.395H0.366699V334.558H18.9242V353.395Z" fill="#ECD979"/>
<path d="M482.857 334.558H464.299V315.722H482.857V334.558Z" fill="#ECD979"/>
<path d="M464.299 334.558H445.742V315.722H464.299V334.558Z" fill="#ECD979"/>
<path d="M334.397 334.558H315.839V315.722H334.397V334.558Z" fill="#ECD979"/>
<path d="M315.84 334.558H297.282V315.722H315.84V334.558Z" fill="#ECD979"/>
<path d="M278.729 334.558H260.171V315.722H278.729V334.558Z" fill="#ECD979"/>
<path d="M260.172 334.558H241.614V315.722H260.172V334.558Z" fill="#ECD979"/>
<path d="M130.269 334.558H111.711V315.722H130.269V334.558Z" fill="#ECD979"/>
<path d="M111.711 334.558H93.1538V315.722H111.711V334.558Z" fill="#ECD979"/>
<path d="M482.857 315.722H464.299V296.886H482.857V315.722Z" fill="#ECD979"/>
<path d="M464.299 315.722H445.742V296.886H464.299V315.722Z" fill="#ECD979"/>
<path d="M445.742 315.722H427.185V296.886H445.742V315.722Z" fill="#ECD979"/>
<path d="M352.954 315.722H334.397V296.886H352.954V315.722Z" fill="#ECD979"/>
<path d="M334.397 315.722H315.839V296.886H334.397V315.722Z" fill="#ECD979"/>
<path d="M260.172 315.722H241.614V296.886H260.172V315.722Z" fill="#ECD979"/>
<path d="M241.614 315.722H223.057V296.886H241.614V315.722Z" fill="#ECD979"/>
<path d="M148.827 315.722H130.269V296.886H148.827V315.722Z" fill="#ECD979"/>
<path d="M130.269 315.722H111.711V296.886H130.269V315.722Z" fill="#ECD979"/>
<path d="M111.711 315.722H93.1538V296.886H111.711V315.722Z" fill="#ECD979"/>
<path d="M464.299 296.886H445.742V278.05H464.299V296.886Z" fill="#ECD979"/>
<path d="M445.742 296.886H427.185V278.05H445.742V296.886Z" fill="#ECD979"/>
<path d="M371.512 296.886H352.955V278.05H371.512V296.886Z" fill="#ECD979"/>
<path d="M352.954 296.886H334.397V278.05H352.954V296.886Z" fill="#ECD979"/>
<path d="M241.614 296.886H223.057V278.05H241.614V296.886Z" fill="#ECD979"/>
<path d="M223.057 296.886H204.499V278.05H223.057V296.886Z" fill="#ECD979"/>
<path d="M148.827 296.886H130.269V278.05H148.827V296.886Z" fill="#ECD979"/>
<path d="M130.269 296.886H111.711V278.05H130.269V296.886Z" fill="#ECD979"/>
<path d="M501.414 278.05H482.857V259.214H501.414V278.05Z" fill="#ECD979"/>
<path d="M445.742 278.05H427.185V259.214H445.742V278.05Z" fill="#ECD979"/>
<path d="M390.069 278.05H371.512V259.214H390.069V278.05Z" fill="#ECD979"/>
<path d="M371.512 278.05H352.955V259.214H371.512V278.05Z" fill="#ECD979"/>
<path d="M223.057 278.05H204.499V259.214H223.057V278.05Z" fill="#ECD979"/>
<path d="M204.499 278.05H185.941V259.214H204.499V278.05Z" fill="#ECD979"/>
<path d="M148.827 278.05H130.269V259.214H148.827V278.05Z" fill="#ECD979"/>
<path d="M93.1542 278.05H74.5967V259.214H93.1542V278.05Z" fill="#ECD979"/>
<path d="M74.5966 278.05H56.0391V259.214H74.5966V278.05Z" fill="#ECD979"/>
<path d="M56.0389 278.05H37.4814V259.214H56.0389V278.05Z" fill="#ECD979"/>
<path d="M501.414 259.214H482.857V240.378H501.414V259.214Z" fill="#ECD979"/>
<path d="M482.857 259.214H464.299V240.378H482.857V259.214Z" fill="#ECD979"/>
<path d="M408.627 259.214H390.069V240.378H408.627V259.214Z" fill="#ECD979"/>
<path d="M390.069 259.214H371.512V240.378H390.069V259.214Z" fill="#ECD979"/>
<path d="M204.499 259.214H185.941V240.378H204.499V259.214Z" fill="#ECD979"/>
<path d="M185.942 259.214H167.384V240.378H185.942V259.214Z" fill="#ECD979"/>
<path d="M111.711 259.214H93.1538V240.378H111.711V259.214Z" fill="#ECD979"/>
<path d="M93.1542 259.214H74.5967V240.378H93.1542V259.214Z" fill="#ECD979"/>
<path d="M74.5966 259.214H56.0391V240.378H74.5966V259.214Z" fill="#ECD979"/>
<path d="M501.414 240.378H482.857V221.542H501.414V240.378Z" fill="#ECD979"/>
<path d="M482.857 240.378H464.299V221.542H482.857V240.378Z" fill="#ECD979"/>
<path d="M464.299 240.378H445.742V221.542H464.299V240.378Z" fill="#ECD979"/>
<path d="M427.184 240.378H408.627V221.542H427.184V240.378Z" fill="#ECD979"/>
<path d="M408.627 240.378H390.069V221.542H408.627V240.378Z" fill="#ECD979"/>
<path d="M297.287 240.378H278.729V221.542H297.287V240.378Z" fill="#ECD979"/>
<path d="M185.942 240.378H167.384V221.542H185.942V240.378Z" fill="#ECD979"/>
<path d="M167.384 240.378H148.827V221.542H167.384V240.378Z" fill="#ECD979"/>
<path d="M130.269 240.378H111.711V221.542H130.269V240.378Z" fill="#ECD979"/>
<path d="M111.711 240.378H93.1538V221.542H111.711V240.378Z" fill="#ECD979"/>
<path d="M93.1542 240.378H74.5967V221.542H93.1542V240.378Z" fill="#ECD979"/>
<path d="M18.5575 221.542H0V202.705H18.5575V221.542Z" fill="#ECD979"/>
<path d="M37.4813 221.542H18.9238V202.705H37.4813V221.542Z" fill="#ECD979"/>
<path d="M18.5575 240.378H0V221.542H18.5575V240.378Z" fill="#ECD979"/>
<path d="M18.5575 202.706H0V183.869H18.5575V202.706Z" fill="#ECD979"/>
<path d="M315.84 221.542H297.282V202.705H315.84V221.542Z" fill="#ECD979"/>
<path d="M297.287 221.542H278.729V202.705H297.287V221.542Z" fill="#ECD979"/>
<path d="M278.729 221.542H260.171V202.705H278.729V221.542Z" fill="#ECD979"/>
<path d="M501.414 202.706H482.857V183.869H501.414V202.706Z" fill="#ECD979"/>
<path d="M482.857 202.706H464.299V183.869H482.857V202.706Z" fill="#ECD979"/>
<path d="M464.299 202.706H445.742V183.869H464.299V202.706Z" fill="#ECD979"/>
<path d="M427.184 202.706H408.627V183.869H427.184V202.706Z" fill="#ECD979"/>
<path d="M408.627 202.706H390.069V183.869H408.627V202.706Z" fill="#ECD979"/>
<path d="M297.287 202.706H278.729V183.869H297.287V202.706Z" fill="#ECD979"/>
<path d="M185.942 202.706H167.384V183.869H185.942V202.706Z" fill="#ECD979"/>
<path d="M167.384 202.706H148.827V183.869H167.384V202.706Z" fill="#ECD979"/>
<path d="M130.269 202.706H111.711V183.869H130.269V202.706Z" fill="#ECD979"/>
<path d="M111.711 202.706H93.1538V183.869H111.711V202.706Z" fill="#ECD979"/>
<path d="M93.1542 202.706H74.5967V183.869H93.1542V202.706Z" fill="#ECD979"/>
<path d="M501.414 183.87H482.857V165.034H501.414V183.87Z" fill="#ECD979"/>
<path d="M482.857 183.87H464.299V165.034H482.857V183.87Z" fill="#ECD979"/>
<path d="M408.627 183.87H390.069V165.034H408.627V183.87Z" fill="#ECD979"/>
<path d="M390.069 183.87H371.512V165.034H390.069V183.87Z" fill="#ECD979"/>
<path d="M204.499 183.87H185.941V165.034H204.499V183.87Z" fill="#ECD979"/>
<path d="M185.942 183.87H167.384V165.034H185.942V183.87Z" fill="#ECD979"/>
<path d="M111.711 183.87H93.1538V165.034H111.711V183.87Z" fill="#ECD979"/>
<path d="M93.1542 183.87H74.5967V165.034H93.1542V183.87Z" fill="#ECD979"/>
<path d="M74.5966 183.87H56.0391V165.034H74.5966V183.87Z" fill="#ECD979"/>
<path d="M501.414 165.033H482.857V146.197H501.414V165.033Z" fill="#ECD979"/>
<path d="M445.742 165.033H427.185V146.197H445.742V165.033Z" fill="#ECD979"/>
<path d="M390.069 165.033H371.512V146.197H390.069V165.033Z" fill="#ECD979"/>
<path d="M371.512 165.033H352.955V146.197H371.512V165.033Z" fill="#ECD979"/>
<path d="M223.057 165.033H204.499V146.197H223.057V165.033Z" fill="#ECD979"/>
<path d="M204.499 165.033H185.941V146.197H204.499V165.033Z" fill="#ECD979"/>
<path d="M148.827 165.033H130.269V146.197H148.827V165.033Z" fill="#ECD979"/>
<path d="M93.1542 165.033H74.5967V146.197H93.1542V165.033Z" fill="#ECD979"/>
<path d="M74.5966 165.033H56.0391V146.197H74.5966V165.033Z" fill="#ECD979"/>
<path d="M56.0389 165.033H37.4814V146.197H56.0389V165.033Z" fill="#ECD979"/>
<path d="M464.299 146.197H445.742V127.361H464.299V146.197Z" fill="#ECD979"/>
<path d="M445.742 146.197H427.185V127.361H445.742V146.197Z" fill="#ECD979"/>
<path d="M371.512 146.197H352.955V127.361H371.512V146.197Z" fill="#ECD979"/>
<path d="M352.954 146.197H334.397V127.361H352.954V146.197Z" fill="#ECD979"/>
<path d="M241.614 146.197H223.057V127.361H241.614V146.197Z" fill="#ECD979"/>
<path d="M223.057 146.197H204.499V127.361H223.057V146.197Z" fill="#ECD979"/>
<path d="M148.827 146.197H130.269V127.361H148.827V146.197Z" fill="#ECD979"/>
<path d="M130.269 146.197H111.711V127.361H130.269V146.197Z" fill="#ECD979"/>
<path d="M482.857 127.361H464.299V108.525H482.857V127.361Z" fill="#ECD979"/>
<path d="M464.299 127.361H445.742V108.525H464.299V127.361Z" fill="#ECD979"/>
<path d="M445.742 127.361H427.185V108.525H445.742V127.361Z" fill="#ECD979"/>
<path d="M352.954 127.361H334.397V108.525H352.954V127.361Z" fill="#ECD979"/>
<path d="M334.397 127.361H315.839V108.525H334.397V127.361Z" fill="#ECD979"/>
<path d="M260.172 127.361H241.614V108.525H260.172V127.361Z" fill="#ECD979"/>
<path d="M241.614 127.361H223.057V108.525H241.614V127.361Z" fill="#ECD979"/>
<path d="M148.827 127.361H130.269V108.525H148.827V127.361Z" fill="#ECD979"/>
<path d="M130.269 127.361H111.711V108.525H130.269V127.361Z" fill="#ECD979"/>
<path d="M111.711 127.361H93.1538V108.525H111.711V127.361Z" fill="#ECD979"/>
<path d="M482.857 108.525H464.299V89.6888H482.857V108.525Z" fill="#ECD979"/>
<path d="M464.299 108.525H445.742V89.6888H464.299V108.525Z" fill="#ECD979"/>
<path d="M334.397 108.525H315.839V89.6888H334.397V108.525Z" fill="#ECD979"/>
<path d="M315.84 108.525H297.282V89.6888H315.84V108.525Z" fill="#ECD979"/>
<path d="M278.729 108.525H260.171V89.6888H278.729V108.525Z" fill="#ECD979"/>
<path d="M260.172 108.525H241.614V89.6888H260.172V108.525Z" fill="#ECD979"/>
<path d="M130.269 108.525H111.711V89.6888H130.269V108.525Z" fill="#ECD979"/>
<path d="M111.711 108.525H93.1538V89.6888H111.711V108.525Z" fill="#ECD979"/>
<path d="M482.857 89.689H464.299V70.8528H482.857V89.689Z" fill="#ECD979"/>
<path d="M315.84 89.689H297.282V70.8528H315.84V89.689Z" fill="#ECD979"/>
<path d="M278.729 89.689H260.171V70.8528H278.729V89.689Z" fill="#ECD979"/>
<path d="M111.711 89.689H93.1538V70.8528H111.711V89.689Z" fill="#ECD979"/>
<path d="M18.9242 70.8525H0.366699V52.0164H18.9242V70.8525Z" fill="#ECD979"/>
<path d="M390.069 52.0166H371.512V33.1805H390.069V52.0166Z" fill="#ECD979"/>
<path d="M371.512 52.0166H352.955V33.1805H371.512V52.0166Z" fill="#ECD979"/>
<path d="M352.954 52.0166H334.397V33.1805H352.954V52.0166Z" fill="#ECD979"/>
<path d="M241.614 52.0166H223.057V33.1805H241.614V52.0166Z" fill="#ECD979"/>
<path d="M223.057 52.0166H204.499V33.1805H223.057V52.0166Z" fill="#ECD979"/>
<path d="M204.499 52.0166H185.941V33.1805H204.499V52.0166Z" fill="#ECD979"/>
<path d="M37.4813 52.0166H18.9238V33.1805H37.4813V52.0166Z" fill="#ECD979"/>
<path d="M18.9242 52.0166H0.366699V33.1805H18.9242V52.0166Z" fill="#ECD979"/>
<path d="M408.627 33.1802H390.069V14.3441H408.627V33.1802Z" fill="#ECD979"/>
<path d="M390.069 33.1802H371.512V14.3441H390.069V33.1802Z" fill="#ECD979"/>
<path d="M371.512 33.1802H352.955V14.3441H371.512V33.1802Z" fill="#ECD979"/>
<path d="M315.84 33.1802H297.282V14.3441H315.84V33.1802Z" fill="#ECD979"/>
<path d="M278.729 33.1802H260.171V14.3441H278.729V33.1802Z" fill="#ECD979"/>
<path d="M223.057 33.1802H204.499V14.3441H223.057V33.1802Z" fill="#ECD979"/>
<path d="M204.499 33.1802H185.941V14.3441H204.499V33.1802Z" fill="#ECD979"/>
<path d="M185.942 33.1802H167.384V14.3441H185.942V33.1802Z" fill="#ECD979"/>
<path d="M56.0389 33.1802H37.4814V14.3441H56.0389V33.1802Z" fill="#ECD979"/>
<path d="M37.4813 33.1802H18.9238V14.3441H37.4813V33.1802Z" fill="#ECD979"/>
<path d="M18.9242 33.1802H0.366699V14.3441H18.9242V33.1802Z" fill="#ECD979"/>
<path d="M427.184 14.3442H408.627V-4.49188H427.184V14.3442Z" fill="#ECD979"/>
<path d="M408.627 14.3442H390.069V-4.49188H408.627V14.3442Z" fill="#ECD979"/>
<path d="M390.069 14.3442H371.512V-4.49188H390.069V14.3442Z" fill="#ECD979"/>
<path d="M334.397 14.3442H315.839V-4.49188H334.397V14.3442Z" fill="#ECD979"/>
<path d="M315.84 14.3442H297.282V-4.49188H315.84V14.3442Z" fill="#ECD979"/>
<path d="M278.729 14.3442H260.171V-4.49188H278.729V14.3442Z" fill="#ECD979"/>
<path d="M260.172 14.3442H241.614V-4.49188H260.172V14.3442Z" fill="#ECD979"/>
<path d="M204.499 14.3442H185.941V-4.49188H204.499V14.3442Z" fill="#ECD979"/>
<path d="M185.942 14.3442H167.384V-4.49188H185.942V14.3442Z" fill="#ECD979"/>
<path d="M167.384 14.3442H148.827V-4.49188H167.384V14.3442Z" fill="#ECD979"/>
<path d="M74.5966 14.3442H56.0391V-4.49188H74.5966V14.3442Z" fill="#ECD979"/>
<path d="M56.0389 14.3442H37.4814V-4.49188H56.0389V14.3442Z" fill="#ECD979"/>
<path d="M37.4813 14.3442H18.9238V-4.49188H37.4813V14.3442Z" fill="#ECD979"/>
</g>
<defs>
<clipPath id="clip0_37_389">
<rect width="595" height="528" fill="white" transform="translate(0 -61)"/>
</clipPath>
</defs>
</svg>
