<svg width="325" height="484" viewBox="0 0 325 484" fill="none" xmlns="http://www.w3.org/2000/svg">
<g clip-path="url(#clip0_15092_683)">
<path d="M324.27 483.46H307.271V466.194H324.27V483.46Z" fill="#FCF9F9" fill-opacity="0.1"/>
<path d="M307.271 483.46H290.273V466.194H307.271V483.46Z" fill="#FCF9F9" fill-opacity="0.1"/>
<path d="M239.279 483.46H222.281V466.194H239.279V483.46Z" fill="#FCF9F9" fill-opacity="0.1"/>
<path d="M222.281 483.46H205.283V466.194H222.281V483.46Z" fill="#FCF9F9" fill-opacity="0.1"/>
<path d="M205.282 483.46H188.284V466.194H205.282V483.46Z" fill="#FCF9F9" fill-opacity="0.1"/>
<path d="M103.295 483.46H86.2969V466.194H103.295V483.46Z" fill="#FCF9F9" fill-opacity="0.1"/>
<path d="M1.3103 483.46H-15.6877V466.194H1.3103V483.46Z" fill="#FCF9F9" fill-opacity="0.1"/>
<path d="M324.27 466.194H307.271V448.927H324.27V466.194Z" fill="#FCF9F9" fill-opacity="0.1"/>
<path d="M256.276 466.194H239.278V448.927H256.276V466.194Z" fill="#FCF9F9" fill-opacity="0.1"/>
<path d="M239.279 466.194H222.281V448.927H239.279V466.194Z" fill="#FCF9F9" fill-opacity="0.1"/>
<path d="M222.281 466.194H205.283V448.927H222.281V466.194Z" fill="#FCF9F9" fill-opacity="0.1"/>
<path d="M103.295 466.194H86.2969V448.927H103.295V466.194Z" fill="#FCF9F9" fill-opacity="0.1"/>
<path d="M86.2969 466.194H69.2988V448.927H86.2969V466.194Z" fill="#FCF9F9" fill-opacity="0.1"/>
<path d="M18.3083 466.194H1.3103V448.927H18.3083V466.194Z" fill="#FCF9F9" fill-opacity="0.1"/>
<path d="M1.3103 466.194H-15.6877V448.927H1.3103V466.194Z" fill="#FCF9F9" fill-opacity="0.1"/>
<path d="M273.275 448.928H256.277V431.661H273.275V448.928Z" fill="#FCF9F9" fill-opacity="0.1"/>
<path d="M256.276 448.928H239.278V431.661H256.276V448.928Z" fill="#FCF9F9" fill-opacity="0.1"/>
<path d="M239.279 448.928H222.281V431.661H239.279V448.928Z" fill="#FCF9F9" fill-opacity="0.1"/>
<path d="M103.295 448.928H86.2969V431.661H103.295V448.928Z" fill="#FCF9F9" fill-opacity="0.1"/>
<path d="M86.2969 448.928H69.2988V431.661H86.2969V448.928Z" fill="#FCF9F9" fill-opacity="0.1"/>
<path d="M69.2979 448.928H52.2998V431.661H69.2979V448.928Z" fill="#FCF9F9" fill-opacity="0.1"/>
<path d="M35.3064 448.928H18.3083V431.661H35.3064V448.928Z" fill="#FCF9F9" fill-opacity="0.1"/>
<path d="M18.3083 448.928H1.3103V431.661H18.3083V448.928Z" fill="#FCF9F9" fill-opacity="0.1"/>
<path d="M1.3103 448.928H-15.6877V431.661H1.3103V448.928Z" fill="#FCF9F9" fill-opacity="0.1"/>
<path d="M290.272 431.661H273.274V414.395H290.272V431.661Z" fill="#FCF9F9" fill-opacity="0.1"/>
<path d="M273.275 431.661H256.277V414.395H273.275V431.661Z" fill="#FCF9F9" fill-opacity="0.1"/>
<path d="M256.276 431.661H239.278V414.395H256.276V431.661Z" fill="#FCF9F9" fill-opacity="0.1"/>
<path d="M171.287 431.661H154.289V414.395H171.287V431.661Z" fill="#FCF9F9" fill-opacity="0.1"/>
<path d="M154.289 431.661H137.291V414.395H154.289V431.661Z" fill="#FCF9F9" fill-opacity="0.1"/>
<path d="M137.291 431.661H120.293V414.395H137.291V431.661Z" fill="#FCF9F9" fill-opacity="0.1"/>
<path d="M86.2969 431.661H69.2988V414.395H86.2969V431.661Z" fill="#FCF9F9" fill-opacity="0.1"/>
<path d="M69.2979 431.661H52.2998V414.395H69.2979V431.661Z" fill="#FCF9F9" fill-opacity="0.1"/>
<path d="M35.3064 431.661H18.3083V414.395H35.3064V431.661Z" fill="#FCF9F9" fill-opacity="0.1"/>
<path d="M18.3083 431.661H1.3103V414.395H18.3083V431.661Z" fill="#FCF9F9" fill-opacity="0.1"/>
<path d="M307.271 414.395H290.273V397.128H307.271V414.395Z" fill="#FCF9F9" fill-opacity="0.1"/>
<path d="M290.272 414.395H273.274V397.128H290.272V414.395Z" fill="#FCF9F9" fill-opacity="0.1"/>
<path d="M273.275 414.395H256.277V397.128H273.275V414.395Z" fill="#FCF9F9" fill-opacity="0.1"/>
<path d="M154.289 414.395H137.291V397.128H154.289V414.395Z" fill="#FCF9F9" fill-opacity="0.1"/>
<path d="M137.291 414.395H120.293V397.128H137.291V414.395Z" fill="#FCF9F9" fill-opacity="0.1"/>
<path d="M120.293 414.395H103.295V397.128H120.293V414.395Z" fill="#FCF9F9" fill-opacity="0.1"/>
<path d="M69.2979 414.395H52.2998V397.128H69.2979V414.395Z" fill="#FCF9F9" fill-opacity="0.1"/>
<path d="M35.3064 414.395H18.3083V397.128H35.3064V414.395Z" fill="#FCF9F9" fill-opacity="0.1"/>
<path d="M307.271 397.128H290.273V379.861H307.271V397.128Z" fill="#FCF9F9" fill-opacity="0.1"/>
<path d="M290.272 397.128H273.274V379.861H290.272V397.128Z" fill="#FCF9F9" fill-opacity="0.1"/>
<path d="M137.291 397.128H120.293V379.861H137.291V397.128Z" fill="#FCF9F9" fill-opacity="0.1"/>
<path d="M120.293 397.128H103.295V379.861H120.293V397.128Z" fill="#FCF9F9" fill-opacity="0.1"/>
<path d="M103.295 397.128H86.2969V379.861H103.295V397.128Z" fill="#FCF9F9" fill-opacity="0.1"/>
<path d="M1.3103 397.128H-15.6877V379.861H1.3103V397.128Z" fill="#FCF9F9" fill-opacity="0.1"/>
<path d="M307.271 379.862H290.273V362.595H307.271V379.862Z" fill="#FCF9F9" fill-opacity="0.1"/>
<path d="M222.281 379.862H205.283V362.595H222.281V379.862Z" fill="#FCF9F9" fill-opacity="0.1"/>
<path d="M69.2979 379.862H52.2998V362.595H69.2979V379.862Z" fill="#FCF9F9" fill-opacity="0.1"/>
<path d="M35.3064 379.862H18.3083V362.595H35.3064V379.862Z" fill="#FCF9F9" fill-opacity="0.1"/>
<path d="M222.281 362.595H205.283V345.329H222.281V362.595Z" fill="#FCF9F9" fill-opacity="0.1"/>
<path d="M205.282 362.595H188.284V345.329H205.282V362.595Z" fill="#FCF9F9" fill-opacity="0.1"/>
<path d="M86.2969 362.595H69.2988V345.329H86.2969V362.595Z" fill="#FCF9F9" fill-opacity="0.1"/>
<path d="M69.2979 362.595H52.2998V345.329H69.2979V362.595Z" fill="#FCF9F9" fill-opacity="0.1"/>
<path d="M35.3064 362.595H18.3083V345.329H35.3064V362.595Z" fill="#FCF9F9" fill-opacity="0.1"/>
<path d="M18.3083 362.595H1.3103V345.329H18.3083V362.595Z" fill="#FCF9F9" fill-opacity="0.1"/>
<path d="M222.281 345.329H205.283V328.063H222.281V345.329Z" fill="#FCF9F9" fill-opacity="0.1"/>
<path d="M205.283 345.329H188.285V328.063H205.283V345.329Z" fill="#FCF9F9" fill-opacity="0.1"/>
<path d="M188.285 345.329H171.287V328.063H188.285V345.329Z" fill="#FCF9F9" fill-opacity="0.1"/>
<path d="M103.295 345.329H86.2969V328.063H103.295V345.329Z" fill="#FCF9F9" fill-opacity="0.1"/>
<path d="M86.2969 345.329H69.2988V328.063H86.2969V345.329Z" fill="#FCF9F9" fill-opacity="0.1"/>
<path d="M18.3086 345.329H1.31055V328.063H18.3086V345.329Z" fill="#FCF9F9" fill-opacity="0.1"/>
<path d="M1.31055 345.329H-15.6875V328.063H1.31055V345.329Z" fill="#FCF9F9" fill-opacity="0.1"/>
<path d="M205.282 328.062H188.284V310.796H205.282V328.062Z" fill="#FCF9F9" fill-opacity="0.1"/>
<path d="M188.284 328.062H171.286V310.796H188.284V328.062Z" fill="#FCF9F9" fill-opacity="0.1"/>
<path d="M120.293 328.062H103.295V310.796H120.293V328.062Z" fill="#FCF9F9" fill-opacity="0.1"/>
<path d="M103.295 328.062H86.2969V310.796H103.295V328.062Z" fill="#FCF9F9" fill-opacity="0.1"/>
<path d="M1.3103 328.062H-15.6877V310.796H1.3103V328.062Z" fill="#FCF9F9" fill-opacity="0.1"/>
<path d="M273.275 310.796H256.277V293.529H273.275V310.796Z" fill="#FCF9F9" fill-opacity="0.1"/>
<path d="M256.276 310.796H239.278V293.529H256.276V310.796Z" fill="#FCF9F9" fill-opacity="0.1"/>
<path d="M239.279 310.796H222.281V293.529H239.279V310.796Z" fill="#FCF9F9" fill-opacity="0.1"/>
<path d="M188.284 310.796H171.286V293.529H188.284V310.796Z" fill="#FCF9F9" fill-opacity="0.1"/>
<path d="M137.291 310.796H120.293V293.529H137.291V310.796Z" fill="#FCF9F9" fill-opacity="0.1"/>
<path d="M120.293 310.796H103.295V293.529H120.293V310.796Z" fill="#FCF9F9" fill-opacity="0.1"/>
<path d="M324.27 293.529H307.271V276.263H324.27V293.529Z" fill="#FCF9F9" fill-opacity="0.1"/>
<path d="M256.277 293.529H239.279V276.263H256.277V293.529Z" fill="#FCF9F9" fill-opacity="0.1"/>
<path d="M239.279 293.529H222.281V276.263H239.279V293.529Z" fill="#FCF9F9" fill-opacity="0.1"/>
<path d="M222.281 293.529H205.283V276.263H222.281V293.529Z" fill="#FCF9F9" fill-opacity="0.1"/>
<path d="M154.289 293.529H137.291V276.263H154.289V293.529Z" fill="#FCF9F9" fill-opacity="0.1"/>
<path d="M137.291 293.529H120.293V276.263H137.291V293.529Z" fill="#FCF9F9" fill-opacity="0.1"/>
<path d="M324.27 276.263H307.271V258.997H324.27V276.263Z" fill="#FCF9F9" fill-opacity="0.1"/>
<path d="M307.271 276.263H290.273V258.997H307.271V276.263Z" fill="#FCF9F9" fill-opacity="0.1"/>
<path d="M239.279 276.263H222.281V258.997H239.279V276.263Z" fill="#FCF9F9" fill-opacity="0.1"/>
<path d="M222.281 276.263H205.283V258.997H222.281V276.263Z" fill="#FCF9F9" fill-opacity="0.1"/>
<path d="M205.282 276.263H188.284V258.997H205.282V276.263Z" fill="#FCF9F9" fill-opacity="0.1"/>
<path d="M171.287 276.263H154.289V258.997H171.287V276.263Z" fill="#FCF9F9" fill-opacity="0.1"/>
<path d="M154.289 276.263H137.291V258.997H154.289V276.263Z" fill="#FCF9F9" fill-opacity="0.1"/>
<path d="M52.3044 276.263H35.3064V258.997H52.3044V276.263Z" fill="#FCF9F9" fill-opacity="0.1"/>
<path d="M324.27 258.997H307.271V241.73H324.27V258.997Z" fill="#FCF9F9" fill-opacity="0.1"/>
<path d="M307.271 258.997H290.273V241.73H307.271V258.997Z" fill="#FCF9F9" fill-opacity="0.1"/>
<path d="M290.272 258.997H273.274V241.73H290.272V258.997Z" fill="#FCF9F9" fill-opacity="0.1"/>
<path d="M69.2979 258.997H52.2998V241.73H69.2979V258.997Z" fill="#FCF9F9" fill-opacity="0.1"/>
<path d="M52.3044 258.997H35.3064V241.73H52.3044V258.997Z" fill="#FCF9F9" fill-opacity="0.1"/>
<path d="M35.3064 258.997H18.3083V241.73H35.3064V258.997Z" fill="#FCF9F9" fill-opacity="0.1"/>
<path d="M324.27 241.73H307.271V224.464H324.27V241.73Z" fill="#FCF9F9" fill-opacity="0.1"/>
<path d="M307.271 241.73H290.273V224.464H307.271V241.73Z" fill="#FCF9F9" fill-opacity="0.1"/>
<path d="M239.279 241.73H222.281V224.464H239.279V241.73Z" fill="#FCF9F9" fill-opacity="0.1"/>
<path d="M222.281 241.73H205.283V224.464H222.281V241.73Z" fill="#FCF9F9" fill-opacity="0.1"/>
<path d="M205.282 241.73H188.284V224.464H205.282V241.73Z" fill="#FCF9F9" fill-opacity="0.1"/>
<path d="M171.287 241.73H154.289V224.464H171.287V241.73Z" fill="#FCF9F9" fill-opacity="0.1"/>
<path d="M154.289 241.73H137.291V224.464H154.289V241.73Z" fill="#FCF9F9" fill-opacity="0.1"/>
<path d="M52.3044 241.73H35.3064V224.464H52.3044V241.73Z" fill="#FCF9F9" fill-opacity="0.1"/>
<path d="M324.27 224.464H307.271V207.197H324.27V224.464Z" fill="#FCF9F9" fill-opacity="0.1"/>
<path d="M256.276 224.464H239.278V207.197H256.276V224.464Z" fill="#FCF9F9" fill-opacity="0.1"/>
<path d="M239.279 224.464H222.281V207.197H239.279V224.464Z" fill="#FCF9F9" fill-opacity="0.1"/>
<path d="M222.281 224.464H205.283V207.197H222.281V224.464Z" fill="#FCF9F9" fill-opacity="0.1"/>
<path d="M154.289 224.464H137.291V207.197H154.289V224.464Z" fill="#FCF9F9" fill-opacity="0.1"/>
<path d="M137.291 224.464H120.293V207.197H137.291V224.464Z" fill="#FCF9F9" fill-opacity="0.1"/>
<path d="M273.275 207.197H256.277V189.931H273.275V207.197Z" fill="#FCF9F9" fill-opacity="0.1"/>
<path d="M256.276 207.197H239.278V189.931H256.276V207.197Z" fill="#FCF9F9" fill-opacity="0.1"/>
<path d="M239.279 207.197H222.281V189.931H239.279V207.197Z" fill="#FCF9F9" fill-opacity="0.1"/>
<path d="M188.284 207.197H171.286V189.931H188.284V207.197Z" fill="#FCF9F9" fill-opacity="0.1"/>
<path d="M137.291 207.197H120.293V189.931H137.291V207.197Z" fill="#FCF9F9" fill-opacity="0.1"/>
<path d="M120.293 207.197H103.295V189.931H120.293V207.197Z" fill="#FCF9F9" fill-opacity="0.1"/>
<path d="M205.282 189.931H188.284V172.665H205.282V189.931Z" fill="#FCF9F9" fill-opacity="0.1"/>
<path d="M188.284 189.931H171.286V172.665H188.284V189.931Z" fill="#FCF9F9" fill-opacity="0.1"/>
<path d="M120.293 189.931H103.295V172.665H120.293V189.931Z" fill="#FCF9F9" fill-opacity="0.1"/>
<path d="M103.295 189.931H86.2969V172.665H103.295V189.931Z" fill="#FCF9F9" fill-opacity="0.1"/>
<path d="M1.3103 189.931H-15.6877V172.665H1.3103V189.931Z" fill="#FCF9F9" fill-opacity="0.1"/>
<path d="M222.281 172.665H205.283V155.398H222.281V172.665Z" fill="#FCF9F9" fill-opacity="0.1"/>
<path d="M205.282 172.665H188.284V155.398H205.282V172.665Z" fill="#FCF9F9" fill-opacity="0.1"/>
<path d="M188.284 172.665H171.286V155.398H188.284V172.665Z" fill="#FCF9F9" fill-opacity="0.1"/>
<path d="M103.295 172.665H86.2969V155.398H103.295V172.665Z" fill="#FCF9F9" fill-opacity="0.1"/>
<path d="M86.2969 172.665H69.2988V155.398H86.2969V172.665Z" fill="#FCF9F9" fill-opacity="0.1"/>
<path d="M18.3083 172.665H1.3103V155.398H18.3083V172.665Z" fill="#FCF9F9" fill-opacity="0.1"/>
<path d="M1.3103 172.665H-15.6877V155.398H1.3103V172.665Z" fill="#FCF9F9" fill-opacity="0.1"/>
<path d="M222.281 155.398H205.283V138.132H222.281V155.398Z" fill="#FCF9F9" fill-opacity="0.1"/>
<path d="M205.282 155.398H188.284V138.132H205.282V155.398Z" fill="#FCF9F9" fill-opacity="0.1"/>
<path d="M86.2969 155.398H69.2988V138.132H86.2969V155.398Z" fill="#FCF9F9" fill-opacity="0.1"/>
<path d="M69.2979 155.398H52.2998V138.132H69.2979V155.398Z" fill="#FCF9F9" fill-opacity="0.1"/>
<path d="M35.3064 155.398H18.3083V138.132H35.3064V155.398Z" fill="#FCF9F9" fill-opacity="0.1"/>
<path d="M18.3083 155.398H1.3103V138.132H18.3083V155.398Z" fill="#FCF9F9" fill-opacity="0.1"/>
<path d="M222.281 138.132H205.283V120.865H222.281V138.132Z" fill="#FCF9F9" fill-opacity="0.1"/>
<path d="M69.2988 138.132H52.3008V120.865H69.2988V138.132Z" fill="#FCF9F9" fill-opacity="0.1"/>
<path d="M35.3067 138.132H18.3086V120.865H35.3067V138.132Z" fill="#FCF9F9" fill-opacity="0.1"/>
<path d="M307.271 120.865H290.273V103.599H307.271V120.865Z" fill="#FCF9F9" fill-opacity="0.1"/>
<path d="M307.271 103.599H290.273V86.3322H307.271V103.599Z" fill="#FCF9F9" fill-opacity="0.1"/>
<path d="M290.272 103.599H273.274V86.3322H290.272V103.599Z" fill="#FCF9F9" fill-opacity="0.1"/>
<path d="M137.291 103.599H120.293V86.3322H137.291V103.599Z" fill="#FCF9F9" fill-opacity="0.1"/>
<path d="M120.293 103.599H103.295V86.3322H120.293V103.599Z" fill="#FCF9F9" fill-opacity="0.1"/>
<path d="M103.295 103.599H86.2969V86.3322H103.295V103.599Z" fill="#FCF9F9" fill-opacity="0.1"/>
<path d="M1.3103 103.599H-15.6877V86.3322H1.3103V103.599Z" fill="#FCF9F9" fill-opacity="0.1"/>
<path d="M307.271 86.332H290.273V69.0656H307.271V86.332Z" fill="#FCF9F9" fill-opacity="0.1"/>
<path d="M290.272 86.332H273.274V69.0656H290.272V86.332Z" fill="#FCF9F9" fill-opacity="0.1"/>
<path d="M273.275 86.332H256.277V69.0656H273.275V86.332Z" fill="#FCF9F9" fill-opacity="0.1"/>
<path d="M154.289 86.332H137.291V69.0656H154.289V86.332Z" fill="#FCF9F9" fill-opacity="0.1"/>
<path d="M137.291 86.332H120.293V69.0656H137.291V86.332Z" fill="#FCF9F9" fill-opacity="0.1"/>
<path d="M120.293 86.332H103.295V69.0656H120.293V86.332Z" fill="#FCF9F9" fill-opacity="0.1"/>
<path d="M69.2979 86.332H52.2998V69.0656H69.2979V86.332Z" fill="#FCF9F9" fill-opacity="0.1"/>
<path d="M35.3064 86.332H18.3083V69.0656H35.3064V86.332Z" fill="#FCF9F9" fill-opacity="0.1"/>
<path d="M290.272 69.0659H273.274V51.7995H290.272V69.0659Z" fill="#FCF9F9" fill-opacity="0.1"/>
<path d="M273.275 69.0659H256.277V51.7995H273.275V69.0659Z" fill="#FCF9F9" fill-opacity="0.1"/>
<path d="M256.276 69.0659H239.278V51.7995H256.276V69.0659Z" fill="#FCF9F9" fill-opacity="0.1"/>
<path d="M171.287 69.0659H154.289V51.7995H171.287V69.0659Z" fill="#FCF9F9" fill-opacity="0.1"/>
<path d="M154.289 69.0659H137.291V51.7995H154.289V69.0659Z" fill="#FCF9F9" fill-opacity="0.1"/>
<path d="M137.291 69.0659H120.293V51.7995H137.291V69.0659Z" fill="#FCF9F9" fill-opacity="0.1"/>
<path d="M86.2969 69.0659H69.2988V51.7995H86.2969V69.0659Z" fill="#FCF9F9" fill-opacity="0.1"/>
<path d="M69.2979 69.0659H52.2998V51.7995H69.2979V69.0659Z" fill="#FCF9F9" fill-opacity="0.1"/>
<path d="M35.3064 69.0659H18.3083V51.7995H35.3064V69.0659Z" fill="#FCF9F9" fill-opacity="0.1"/>
<path d="M18.3083 69.0659H1.3103V51.7995H18.3083V69.0659Z" fill="#FCF9F9" fill-opacity="0.1"/>
<path d="M273.275 51.7993H256.277V34.5329H273.275V51.7993Z" fill="#FCF9F9" fill-opacity="0.1"/>
<path d="M256.276 51.7993H239.278V34.5329H256.276V51.7993Z" fill="#FCF9F9" fill-opacity="0.1"/>
<path d="M239.279 51.7993H222.281V34.5329H239.279V51.7993Z" fill="#FCF9F9" fill-opacity="0.1"/>
<path d="M103.295 51.7993H86.2969V34.5329H103.295V51.7993Z" fill="#FCF9F9" fill-opacity="0.1"/>
<path d="M86.2969 51.7993H69.2988V34.5329H86.2969V51.7993Z" fill="#FCF9F9" fill-opacity="0.1"/>
<path d="M69.2979 51.7993H52.2998V34.5329H69.2979V51.7993Z" fill="#FCF9F9" fill-opacity="0.1"/>
<path d="M35.3064 51.7993H18.3083V34.5329H35.3064V51.7993Z" fill="#FCF9F9" fill-opacity="0.1"/>
<path d="M18.3083 51.7993H1.3103V34.5329H18.3083V51.7993Z" fill="#FCF9F9" fill-opacity="0.1"/>
<path d="M1.3103 51.7993H-15.6877V34.5329H1.3103V51.7993Z" fill="#FCF9F9" fill-opacity="0.1"/>
<path d="M324.27 34.5327H307.271V17.2663H324.27V34.5327Z" fill="#FCF9F9" fill-opacity="0.1"/>
<path d="M256.276 34.5327H239.278V17.2663H256.276V34.5327Z" fill="#FCF9F9" fill-opacity="0.1"/>
<path d="M239.279 34.5327H222.281V17.2663H239.279V34.5327Z" fill="#FCF9F9" fill-opacity="0.1"/>
<path d="M222.281 34.5327H205.283V17.2663H222.281V34.5327Z" fill="#FCF9F9" fill-opacity="0.1"/>
<path d="M103.295 34.5327H86.2969V17.2663H103.295V34.5327Z" fill="#FCF9F9" fill-opacity="0.1"/>
<path d="M86.2969 34.5327H69.2988V17.2663H86.2969V34.5327Z" fill="#FCF9F9" fill-opacity="0.1"/>
<path d="M18.3083 34.5327H1.3103V17.2663H18.3083V34.5327Z" fill="#FCF9F9" fill-opacity="0.1"/>
<path d="M1.3103 34.5327H-15.6877V17.2663H1.3103V34.5327Z" fill="#FCF9F9" fill-opacity="0.1"/>
<path d="M324.27 17.2666H307.271V0.000160217H324.27V17.2666Z" fill="#FCF9F9" fill-opacity="0.1"/>
<path d="M307.271 17.2666H290.273V0.000160217H307.271V17.2666Z" fill="#FCF9F9" fill-opacity="0.1"/>
<path d="M239.279 17.2666H222.281V0.000160217H239.279V17.2666Z" fill="#FCF9F9" fill-opacity="0.1"/>
<path d="M222.281 17.2666H205.283V0.000160217H222.281V17.2666Z" fill="#FCF9F9" fill-opacity="0.1"/>
<path d="M205.283 17.2666H188.285V0.000160217H205.283V17.2666Z" fill="#FCF9F9" fill-opacity="0.1"/>
<path d="M103.295 17.2666H86.2969V0.000160217H103.295V17.2666Z" fill="#FCF9F9" fill-opacity="0.1"/>
<path d="M1.31055 17.2666H-15.6875V0.000160217H1.31055V17.2666Z" fill="#FCF9F9" fill-opacity="0.1"/>
</g>
<defs>
<clipPath id="clip0_15092_683">
<rect width="325" height="484" fill="white"/>
</clipPath>
</defs>
</svg>
